<?xml version="1.0"?>
<svg width="100" height="100" xmlns="http://www.w3.org/2000/svg" xmlns:svg="http://www.w3.org/2000/svg" xmlns:xlink="http://www.w3.org/1999/xlink">
 <!-- Created with SVG-edit - http://svg-edit.googlecode.com/ -->
 <defs>
  <symbol viewBox="0 0 96 96" y="0px" x="0px" id="svg_10" xmlns:xlink="http://www.w3.org/1999/xlink" xmlns="http://www.w3.org/2000/svg">
   <style type="text/css">.st0{fill:#ffffff;}</style>
   <g id="svg_8">
    <path d="m74.6,34.2c0.9,1.3 1.1,2.7 0.6,4.3l-9.1,29.9c-0.4,1.4 -1.3,2.6 -2.5,3.6c-1.3,1 -2.6,1.4 -4,1.4l-30.5,0c-1.7,0 -3.3,-0.6 -4.9,-1.8c-1.6,-1.2 -2.7,-2.6 -3.3,-4.3c-0.5,-1.5 -0.6,-2.9 -0.1,-4.2c0,-0.1 0,-0.4 0.1,-0.9c0.1,-0.5 0.1,-0.9 0.1,-1.2c0,-0.2 0,-0.4 -0.1,-0.7c-0.1,-0.3 -0.1,-0.5 -0.1,-0.6c0,-0.2 0.1,-0.5 0.3,-0.7c0.1,-0.2 0.3,-0.5 0.5,-0.8c0.2,-0.3 0.4,-0.6 0.5,-0.8c0.5,-0.8 1,-1.8 1.5,-3c0.5,-1.2 0.8,-2.2 1,-3c0.1,-0.2 0.1,-0.6 0,-1c-0.1,-0.4 -0.1,-0.7 0,-0.9c0.1,-0.2 0.3,-0.6 0.6,-0.9c0.3,-0.4 0.5,-0.6 0.6,-0.8c0.5,-0.8 0.9,-1.8 1.4,-3c0.5,-1.2 0.7,-2.2 0.8,-3c0,-0.2 0,-0.6 -0.1,-1.1c-0.1,-0.5 -0.1,-0.8 0,-0.9c0.1,-0.3 0.3,-0.6 0.7,-1s0.6,-0.6 0.7,-0.7c0.4,-0.6 0.9,-1.5 1.4,-2.8c0.5,-1.3 0.8,-2.4 0.9,-3.2c0,-0.2 0,-0.5 -0.1,-0.8c-0.1,-0.4 -0.1,-0.7 -0.1,-0.9c0,-0.2 0.1,-0.4 0.3,-0.6c0.2,-0.2 0.4,-0.5 0.6,-0.8c0.2,-0.3 0.4,-0.5 0.6,-0.7c0.2,-0.3 0.4,-0.6 0.5,-1c0.2,-0.4 0.4,-0.8 0.5,-1.2c0.1,-0.4 0.3,-0.8 0.5,-1.2c0.2,-0.4 0.4,-0.8 0.6,-1.1c0.2,-0.3 0.5,-0.5 0.9,-0.8c0.4,-0.2 0.8,-0.4 1.2,-0.4s1,0 1.6,0.2l0,0.1c0.8,-0.2 1.4,-0.3 1.7,-0.3l25.1,0c1.6,0 2.9,0.6 3.8,1.8c0.9,1.2 1.1,2.7 0.6,4.3l-9,29.9c-0.8,2.6 -1.6,4.3 -2.4,5.1c-0.8,0.8 -2.2,1.1 -4.2,1.1l-28.6,0c-0.6,0 -1,0.2 -1.3,0.5c-0.2,0.4 -0.3,0.8 0,1.4c0.5,1.5 2.1,2.3 4.8,2.3l30.5,0c0.6,0 1.3,-0.2 1.8,-0.5c0.6,-0.3 1,-0.8 1.2,-1.4l9.9,-32.6c0.2,-0.5 0.2,-1.1 0.2,-1.9c0.7,0.5 1.4,1 1.8,1.6zm-35.1,0.1c-0.1,0.3 -0.1,0.5 0.1,0.7c0.1,0.2 0.4,0.3 0.7,0.3l20.1,0c0.3,0 0.6,-0.1 0.8,-0.3s0.5,-0.5 0.5,-0.7l0.7,-2.1c0.1,-0.3 0.1,-0.5 -0.1,-0.7s-0.4,-0.3 -0.7,-0.3l-20,0c-0.3,0 -0.6,0.1 -0.8,0.3c-0.3,0.2 -0.5,0.5 -0.5,0.7l-0.8,2.1zm-2.7,8.4c-0.1,0.3 -0.1,0.5 0.1,0.7s0.4,0.3 0.7,0.3l20.1,0c0.3,0 0.6,-0.1 0.8,-0.3c0.3,-0.2 0.5,-0.5 0.5,-0.7l0.7,-2.1c0.1,-0.3 0.1,-0.5 -0.1,-0.7s-0.4,-0.3 -0.7,-0.3l-20.1,0c-0.3,0 -0.6,0.1 -0.8,0.3c-0.3,0.2 -0.5,0.5 -0.5,0.7l-0.7,2.1z" class="st0" id="svg_9"/>
   </g>
  </symbol>
 </defs>
 <g>
  <title>Layer 1</title>
  <g id="svg_6"/>
  <use x="-15.407377" y="-16.056109" transform="matrix(1.4631916284561157,0,0,1.4631916284561157,0,0) " xlink:href="#svg_10" id="svg_11"/>
  <g id="svg_12"/>
 </g>
</svg>