400 26 1 0
15 Autodesk FormIt 13 ASM 7.0.2 NT  24 Wed Jun 10 10:49:38 2020
304.8 1e-06 1e-12
body $-1 $1 $-1 $-1 #
lump $-1 $-1 $2 $0 #
shell $-1 $-1 $-1 $3 $-1 $1 #
face $-1 $-1 $4 $2 $-1 $17 forward single #
loop $-1 $-1 $5 $3 #
coedge $-1 $6 $8 $-1 $9 forward $4 $-1 #
coedge $-1 $7 $5 $-1 $10 forward $4 $-1 #
coedge $-1 $8 $6 $-1 $11 forward $4 $-1 #
coedge $-1 $5 $7 $-1 $12 forward $4 $-1 #
edge $-1 $13 $14 $5 $18 forward #
edge $-1 $14 $15 $6 $19 forward #
edge $-1 $15 $16 $7 $20 forward #
edge $-1 $16 $13 $8 $21 forward #
vertex $-1 $12 $22 #
vertex $-1 $10 $23 #
vertex $-1 $10 $24 #
vertex $-1 $11 $25 #
plane-surface $-1 3.560754824374499 -19.97650221410181 0 -1 0 0 0 -1 0 forward_v I I I I #
straight-curve $-1 3.560754824374499 -19.97650221410181 0 0 -1 0 I I #
straight-curve $-1 3.560754824374499 -20.87799555620968 0 0 0 1 I I #
straight-curve $-1 3.560754824374499 -20.87799555620968 2.150537634408597 0 1 0 I I #
straight-curve $-1 3.560754824374499 -19.97650221410181 2.150537634408597 0 0 -1 I I #
point $-1 3.560754824374499 -19.97650221410181 0 #
point $-1 3.560754824374499 -20.87799555620968 0 #
point $-1 3.560754824374499 -20.87799555620968 2.150537634408597 #
point $-1 3.560754824374499 -19.97650221410181 2.150537634408597 #
End-of-ACIS-data
