<?xml version="1.0"?>
<svg width="100" height="100" xmlns="http://www.w3.org/2000/svg" xmlns:svg="http://www.w3.org/2000/svg" xmlns:xlink="http://www.w3.org/1999/xlink">
 <!-- Created with SVG-edit - http://svg-edit.googlecode.com/ -->
 <defs>
  <symbol viewBox="0 0 96 96" y="0px" x="0px" id="svg_4" xmlns:xlink="http://www.w3.org/1999/xlink" xmlns="http://www.w3.org/2000/svg">
   <style type="text/css">.st0{fill:#ffffff;}</style>
   <g id="svg_2">
    <path d="m15.5,31.8l0,32.4c0,1.9 1.3,3.6 3.3,4.2l28.2,7.5c0.7,0.2 1.5,0.2 2.2,0l28.2,-7.5c1.9,-0.6 3.3,-2.3 3.3,-4.2l0,-32.4c0,-1.9 -1.3,-3.6 -3.3,-4.2l-28.2,-7.5c-0.7,-0.1 -1.5,-0.1 -2.2,0l-28.2,7.5c-2,0.6 -3.3,2.3 -3.3,4.2zm30.3,39.4l-26,-6.9l0,-29.3l26,7l0,29.2zm-26,-40.6l10.8,-2.9l28.2,7.5l-10.8,2.9l-28.2,-7.5zm56.4,33.7l-26,6.9l0,-29.3l8.7,-2.4l0,10.6l8.7,-2.3l0,-10.5l8.7,-2.3l0,29.3l-0.1,0zm-8.7,-31.4l-28.2,-7.5l8.7,-2.3l28.2,7.5l-8.7,2.3z" class="st0" id="svg_3"/>
   </g>
  </symbol>
 </defs>
 <g>
  <title>Layer 1</title>
  <use x="-21.780906" y="-19.43819" transform="matrix(1.3117609108663968,0,0,1.3117609108663968,12.89173403448967,10.33305880906573) " xlink:href="#svg_4" id="svg_5"/>
  <g id="svg_6"/>
 </g>
</svg>