<?xml version="1.0" encoding="utf-8"?>
<!-- Generator: Adobe Illustrator 15.0.0, SVG Export Plug-In . SVG Version: 6.00 Build 0)  -->
<!DOCTYPE svg PUBLIC "-//W3C//DTD SVG 1.1 Tiny//EN" "http://www.w3.org/Graphics/SVG/1.1/DTD/svg11-tiny.dtd">
<svg version="1.1" baseProfile="tiny" id="Layer_1" xmlns="http://www.w3.org/2000/svg" xmlns:xlink="http://www.w3.org/1999/xlink"
	 x="0px" y="0px" width="20px" height="20px" viewBox="0 0 20 20" xml:space="preserve">
<g>
	<path fill="#aaaaaa" d="M4.111,11.654c-0.15,0-0.975,2.479-1.05,2.795c-0.015,0.105-0.045,0.028-0.045,0.103
		c0,0.21,0.18,0.103,0.51,0.103h0.705c0.105,0,0.596,0.31,0.596,0.385v0.345c0,0.105-0.268,0.135-0.343,0.135
		c-0.21,0-0.937-0.045-1.821-0.045c-1.096,0-1.473,0.045-1.683,0.045c-0.075,0-0.153-0.03-0.153-0.12v-0.36
		c0-0.075,0.044-0.385,0.104-0.385h0.525c0.45,0,0.66-0.07,0.87-0.55c0.105-0.24,1.2-2.945,1.635-4.175
		c0.105-0.3,1.32-3.49,1.455-3.896c0.045-0.15,0.12-0.327,0.015-0.492c-0.045-0.06-0.105-0.126-0.105-0.186
		c0-0.045,0.03-0.101,0.135-0.131c0.42-0.09,1.08-0.538,1.245-0.748c0.075-0.075,0.12-0.134,0.195-0.134
		c0.09,0,0.12,0.09,0.165,0.255c0.285,0.945,1.455,4.305,1.74,5.265c0.345,1.17,1.32,3.82,1.53,4.255
		c0.255,0.495,0.646,0.535,1.021,0.535h0.494c0.09,0-0.023,0.325-0.023,0.385v0.375c0,0.075,0.027,0.105-0.078,0.105
		c-0.27,0-0.549-0.045-1.764-0.045c-1.245,0-1.732,0.045-2.077,0.045c-0.075,0-0.081-0.045-0.081-0.135v-0.345
		c0-0.09,0.004-0.385,0.094-0.385h0.375c0.42,0,0.555,0.165,0.45-0.255c-0.12-0.54-0.735-2.745-0.945-2.745H4.111z M7.621,10.654
		c-0.135,0-1.35-4.145-1.425-4.37C6.151,6.18,6.121,6.102,6.076,6.102c-0.06,0-0.12,0.063-0.165,0.184
		c-0.075,0.195-1.5,4.369-1.605,4.369H7.621z"/>
	<path fill="#aaaaaa" d="M12.827,7.39c0-1.005-0.053-1.215-0.593-1.395L12.054,5.95c-0.166-0.045-0.227-0.075-0.227-0.12v-0.12
		c0-0.045,0.117-0.075,0.207-0.12c0.436-0.195,1.258-0.585,1.633-0.825c0.105-0.075,0.247-0.135,0.337-0.135
		c0.105,0-0.005,0.075-0.021,0.255c-0.016,0.12-0.156,1.83-0.156,3.165v1.74c1-0.465,1.486-0.75,2.223-0.75
		c1.319,0,2.82,1.065,2.82,3.209c0,1.755-1.372,3.405-3.082,3.405c-0.84,0-1.406-0.18-1.751-0.39l-0.591,0.33
		c-0.06,0.045-0.1,0.06-0.189,0.045l-0.178-0.045c-0.061-0.015-0.186-0.045-0.172-0.12c0.031-0.21-0.08-1.455-0.08-2.55V7.39z
		 M13.827,12.249c0,1.245,0.197,1.695,0.377,2.175c0.15,0.36,0.856,0.75,1.501,0.75c0.9,0,2.048-0.615,2.048-2.58
		c0-1.455-0.898-2.835-2.367-2.835c-0.556,0-0.559,0.195-1.559,0.54V12.249z"/>
</g>
</svg>
