<?xml version="1.0" encoding="utf-8"?>
<!-- Generator: Adobe Illustrator 15.0.0, SVG Export Plug-In . SVG Version: 6.00 Build 0)  -->
<!DOCTYPE svg PUBLIC "-//W3C//DTD SVG 1.1//EN" "http://www.w3.org/Graphics/SVG/1.1/DTD/svg11.dtd">
<svg version="1.1" xmlns="http://www.w3.org/2000/svg" xmlns:xlink="http://www.w3.org/1999/xlink" x="0px" y="0px" width="15.36px"
	 height="15.36px" viewBox="0 0 15.36 15.36" enable-background="new 0 0 15.36 15.36" xml:space="preserve">
<g id="Shape_1_1_" enable-background="new    ">
	<g id="Shape_1">
		<g>
			<circle fill-rule="evenodd" clip-rule="evenodd" fill="#AD5446" cx="7.68" cy="7.68" r="7.2"/>
		</g>
	</g>
</g>
<g id="_xF040_">
	<g>
		<path fill="#FFFFFF" d="M10.426,7.022L6.249,11.2H4.161V9.112l4.177-4.178L10.426,7.022z M6.44,10.1L5.26,8.92L4.803,9.377v0.537
			h0.643v0.643h0.537L6.44,10.1z M8.498,5.787c-0.03,0-0.06,0.01-0.085,0.035L5.692,8.544C5.667,8.569,5.657,8.599,5.657,8.629
			c0,0.065,0.045,0.11,0.11,0.11c0.03,0,0.06-0.01,0.085-0.035l2.721-2.721c0.025-0.025,0.035-0.056,0.035-0.086
			C8.608,5.832,8.563,5.787,8.498,5.787z M11.581,5.867l-0.834,0.834L8.659,4.612l0.833-0.828c0.116-0.12,0.281-0.19,0.452-0.19
			s0.336,0.07,0.457,0.19l1.18,1.175c0.115,0.12,0.186,0.286,0.186,0.457S11.696,5.752,11.581,5.867z"/>
	</g>
</g>
</svg>
