700 0 1 0           
4 LibG 20 ASM 224.2.0.65535 NT 24 Sun Jun 23 21:40:19 2019 
304.8000000000000114 9.999999999999999547e-07 1.000000000000000036e-10 
body $-1 -1 $-1 $1 $-1 $2 #
lump $-1 -1 $-1 $-1 $3 $0 #
transform $-1 -1 1 0 0 0 1 0 0 0 1 0 0 0 1 no_rotate no_reflect no_shear #
shell $-1 -1 $-1 $-1 $-1 $4 $-1 $1 #
face $-1 -1 $-1 $5 $6 $3 $-1 $7 forward single #
face $-1 -1 $-1 $8 $9 $3 $-1 $10 reversed single #
loop $-1 -1 $-1 $-1 $11 $4 #
spline-surface $-1 -1 $-1 forward { rotsur 
	ellipse 84.47643653414596088 0 360.8628844031625817 0.743963841035485407 -0 0.6682198764117446288 -3.341099382058723144 0 3.719819205177427257 1 F -6.283185307179586232 F -0 
	-5.684341886080801487e-14 0 -5.684341886080801487e-14 0 1 0 
	full nurbs 2 2 both closed open none none 5 3 
	-6.283185307179586232 2 -4.712388980384689674 2 -3.141592653589793116 2 -1.570796326794896558 2 0 2 
	0 2 1.151304889850827573 2 2.302609779701655146 2 
	81.13533715208723152 -1.224646799147353651e-15 364.5827036083400117 1 
	81.13533715208723152 -5.000000000000002665 364.5827036083400117 0.7071067811865399122 
	84.47643653414596088 -5.000000000000001776 360.8628844031625817 1 
	87.81753591620469024 -5.000000000000000888 357.1430651979851518 0.7071067811865455743 
	87.81753591620469024 6.123233995736768255e-16 357.1430651979851518 1 
	87.81753591620469024 5.000000000000001776 357.1430651979851518 0.7071067811865400232 
	84.47643653414596088 5.000000000000001776 360.8628844031625817 1 
	81.13533715208723152 5.000000000000001776 364.5827036083400117 0.7071067811865400232 
	81.13533715208723152 0 364.5827036083400117 1 
	317.7394253356520721 -1.224646799147353651e-15 311.9281144675495057 0.8388373015808614497 
	317.7394253356520721 -5.000000000000002665 311.9281144675495057 0.5931475442600457892 
	318.666464965182854 -5.000000000000001776 306.0400141974757275 0.8388373015808614497 
	319.5935045947136359 -5.000000000000000888 300.1519139274019494 0.5931475442600505632 
	319.5935045947136359 6.123233995736768255e-16 300.1519139274019494 0.8388373015808614497 
	319.5935045947136359 5.000000000000001776 300.1519139274019494 0.5931475442600459003 
	318.666464965182854 5.000000000000001776 306.0400141974757275 0.8388373015808614497 
	317.7394253356520721 5.000000000000001776 311.9281144675495057 0.5931475442600459003 
	317.7394253356520721 0 311.9281144675495057 0.8388373015808614497 
	366.0180969363423173 -1.224646799147353651e-15 74.39249572536112964 1 
	366.0180969363423173 -5.000000000000002665 74.39249572536112964 0.7071067811865399122 
	363.9816167511077083 -5.000000000000001776 69.82601475472881702 1 
	361.9451365658730992 -5.000000000000000888 65.25953378409653283 0.7071067811865455743 
	361.9451365658730992 6.123233995736768255e-16 65.25953378409653283 1 
	361.9451365658730992 5.000000000000001776 65.25953378409653283 0.7071067811865400232 
	363.9816167511077083 5.000000000000001776 69.82601475472881702 1 
	366.0180969363423173 5.000000000000001776 74.39249572536112964 0.7071067811865400232 
	366.0180969363423173 0 74.39249572536112964 1 
	414.2967685370325626 -1.224646799147353651e-15 -163.1431230168273032 0.8388373015808614497 
	414.2967685370325626 -5.000000000000002665 -163.1431230168273032 0.5931475442600457892 
	409.2967685370325626 -5.000000000000001776 -166.3879846880180935 0.8388373015808614497 
	404.2967685370325626 -5.000000000000000888 -169.6328463592089406 0.5931475442600505632 
	404.2967685370325626 6.123233995736768255e-16 -169.6328463592089406 0.8388373015808614497 
	404.2967685370325626 5.000000000000001776 -169.6328463592089406 0.5931475442600459003 
	409.2967685370325626 5.000000000000001776 -166.3879846880180935 0.8388373015808614497 
	414.2967685370325626 5.000000000000001776 -163.1431230168273032 0.5931475442600459003 
	414.2967685370325626 0 -163.1431230168273032 0.8388373015808614497 
	217.0201035871695296 -1.224646799147353651e-15 -303.9831662184006973 1 
	217.0201035871695296 -5.000000000000002665 -303.9831662184006973 0.7071067811865399122 
	212.0201035871695012 -5.000000000000001776 -303.9831662184006973 1 
	207.0201035871695296 -5.000000000000000888 -303.9831662184006973 0.7071067811865455743 
	207.0201035871695296 6.123233995736768255e-16 -303.9831662184006973 1 
	207.0201035871695296 5.000000000000001776 -303.9831662184006973 0.7071067811865400232 
	212.0201035871695012 5.000000000000001776 -303.9831662184006973 1 
	217.0201035871695296 5.000000000000001776 -303.9831662184006973 0.7071067811865400232 
	217.0201035871695296 0 -303.9831662184006973 1 
	1.000000000000000021e-08 
	
	0 
	0 
	0 
	0 
	0 
	0 
	} I I I I #
face $-1 -1 $-1 $-1 $12 $3 $-1 $13 forward single #
loop $-1 -1 $-1 $-1 $14 $5 #
plane-surface $-1 -1 $-1 212.0201035871695296 -1.184237892933500293e-16 -303.9831662184006404 0 0 1.000000000000000222 1.000000000000000222 0 0 forward_v I I I I #
coedge $-1 -1 $-1 $15 $16 $17 $18 reversed $6 $19 #
loop $-1 -1 $-1 $-1 $17 $8 #
plane-surface $-1 -1 $-1 84.47643653414593246 -1.184237892933500293e-16 360.8628844031625817 -0.743963841035485407 0 -0.6682198764117446288 -0.6682198764117446288 0 0.743963841035485407 forward_v I I I I #
coedge $-1 -1 $-1 $14 $14 $20 $21 forward $9 $-1 #
coedge $-1 -1 $-1 $20 $11 $16 $22 forward $6 $23 #
coedge $-1 -1 $-1 $11 $20 $15 $22 reversed $6 $24 #
coedge $-1 -1 $-1 $17 $17 $11 $18 forward $12 $-1 #
edge $-1 -1 $-1 $25 0 $25 6.283185307179586232 $11 $26 forward @7 unknown #
pcurve $-1 -1 $-1 0 forward { exppc nubs 1 closed 2 
	-6.283185307179586232 1 -0 1 
	-6.283185307179586232 0 
	-0 0 
	0 
	spline forward { ref 0 } I I I I 
	} 0 0 #
coedge $-1 -1 $-1 $16 $15 $14 $21 reversed $6 $27 #
edge $-1 -1 $-1 $28 -6.283185307179586232 $28 -0 $20 $29 forward @7 unknown #
edge $-1 -1 $-1 $25 0 $28 2.30260977970165559 $15 $30 forward @7 tangent #
pcurve $-1 -1 $-1 0 forward { exppc nubs 1 open 2 
	0 1 2.30260977970165559 1 
	-0 0 
	-0 2.302609779701655146 
	0 
	spline forward { ref 0 } I I I I 
	} 0 0 #
pcurve $-1 -1 $-1 0 forward { exppc nubs 1 open 2 
	-2.30260977970165559 1 -0 1 
	-6.283185307179586232 2.302609779701655146 
	-6.283185307179586232 0 
	0 
	spline forward { ref 0 } I I I I 
	} 0 0 #
vertex $-1 -1 $-1 $18 $31 #
ellipse-curve $-1 -1 $-1 84.47643653414596088 0 360.8628844031625817 -0.743963841035485407 0 -0.6682198764117446288 -3.341099382058723144 0 3.719819205177427257 1 F 0 F 6.283185307179586232 #
pcurve $-1 -1 $-1 0 forward { exppc nubs 1 periodic 2 
	0 1 6.283185307179586232 1 
	-0 2.302609779701655146 
	-6.283185307179586232 2.302609779701655146 
	0 
	spline forward { ref 0 } I I I I 
	} 0 0 #
vertex $-1 -1 $-1 $22 $32 #
ellipse-curve $-1 -1 $-1 212.0201035871695012 0 -303.9831662184006973 0 0 -1.000000000000000222 5.000000000000001776 0 0 1 I I #
ellipse-curve $-1 -1 $-1 0 0 -4.263256414560601115e-14 0 1 0 81.13533715208723152 0 364.5827036083400685 1 F 0 F 2.30260977970165559 #
point $-1 -1 $-1 81.13533715208723152 0 364.5827036083400117 #
point $-1 -1 $-1 217.0201035871695012 0 -303.9831662184006973 #
End-of-ACIS-data 