<?xml version="1.0" encoding="utf-8"?>
<!-- Generator: Adobe Illustrator 15.0.0, SVG Export Plug-In . SVG Version: 6.00 Build 0)  -->
<!DOCTYPE svg PUBLIC "-//W3C//DTD SVG 1.1 Tiny//EN" "http://www.w3.org/Graphics/SVG/1.1/DTD/svg11-tiny.dtd">
<svg version="1.1" baseProfile="tiny" id="Layer_1" xmlns="http://www.w3.org/2000/svg" xmlns:xlink="http://www.w3.org/1999/xlink"
	 x="0px" y="0px" width="20px" height="20px" viewBox="0 0 20 20" xml:space="preserve">
<g>
	<path fill="#aaaaaa" d="M16.929,7.654H3.071c-0.307,0-0.556-0.193-0.556-0.5s0.249-0.5,0.556-0.5h13.858
		c0.307,0,0.556,0.193,0.556,0.5S17.236,7.654,16.929,7.654z"/>
</g>
<g>
	<path fill="#aaaaaa" d="M16.929,14.654H3.071c-0.307,0-0.556-0.193-0.556-0.5s0.249-0.5,0.556-0.5h13.858
		c0.307,0,0.556,0.193,0.556,0.5S17.236,14.654,16.929,14.654z"/>
</g>
<g>
	<path fill="#aaaaaa" d="M3.071,14.71c-0.142,0-0.284-0.054-0.393-0.163c-0.217-0.217-0.217-0.568,0-0.786l2.772-2.772
		c0.217-0.217,0.568-0.217,0.786,0c0.217,0.217,0.217,0.568,0,0.786l-2.772,2.772C3.355,14.656,3.213,14.71,3.071,14.71z"/>
</g>
<g>
	<path fill="#aaaaaa" d="M14.158,10.481c-0.142,0-0.284-0.054-0.393-0.163c-0.217-0.217-0.217-0.569,0-0.786l2.771-2.772
		c0.217-0.218,0.569-0.217,0.786,0c0.217,0.217,0.217,0.569,0,0.786l-2.771,2.772C14.442,10.427,14.3,10.481,14.158,10.481z"/>
</g>
<g>
	<path fill="#aaaaaa" d="M5.842,17.481c-0.142,0-0.284-0.054-0.393-0.163l-2.771-2.771c-0.217-0.217-0.217-0.568,0-0.786
		c0.217-0.217,0.568-0.217,0.786,0l2.771,2.771c0.217,0.217,0.217,0.568,0,0.786C6.126,17.427,5.984,17.481,5.842,17.481z"/>
</g>
<g>
	<path fill="#aaaaaa" d="M16.929,7.709c-0.142,0-0.284-0.054-0.393-0.163l-2.771-2.771c-0.217-0.217-0.217-0.569,0-0.786
		c0.218-0.217,0.568-0.217,0.786,0l2.771,2.771c0.217,0.217,0.217,0.569,0,0.786C17.213,7.655,17.071,7.709,16.929,7.709z"/>
</g>
</svg>
