<?xml version="1.0" encoding="utf-8"?>
<!-- Generator: Adobe Illustrator 15.0.0, SVG Export Plug-In . SVG Version: 6.00 Build 0)  -->
<!DOCTYPE svg PUBLIC "-//W3C//DTD SVG 1.1 Tiny//EN" "http://www.w3.org/Graphics/SVG/1.1/DTD/svg11-tiny.dtd">
<svg version="1.1" baseProfile="tiny" id="Layer_1" xmlns="http://www.w3.org/2000/svg" xmlns:xlink="http://www.w3.org/1999/xlink"
	 x="0px" y="0px" width="20px" height="20px" viewBox="0 0 20 20" xml:space="preserve">
<g>
	<path fill="#aaaaaa" d="M15.283,9.428l-8.441,8.226H2.827v-3.789l8.338-8.551L15.283,9.428z M7.228,15.797l-2.43-2.351l-0.97,0.957
		v1.252h1v1h1.477L7.228,15.797z M11.387,7.147c-0.062,0-0.122,0.02-0.173,0.071l-5.498,5.501c-0.051,0.049-0.071,0.11-0.071,0.172
		c0,0.132,0.091,0.223,0.223,0.223c0.062,0,0.122-0.02,0.173-0.071l5.498-5.499c0.051-0.051,0.07-0.113,0.07-0.174
		C11.608,7.238,11.519,7.147,11.387,7.147z M17.616,7.309l-1.685,1.685l-4.219-4.221L13.395,3.1
		c0.235-0.243,0.568-0.385,0.914-0.385c0.346,0,0.679,0.142,0.924,0.385l2.384,2.374c0.233,0.243,0.375,0.578,0.375,0.924
		C17.991,6.743,17.849,7.076,17.616,7.309z"/>
</g>
</svg>
