<?xml version="1.0" encoding="utf-8"?>
<!-- Generator: Adobe Illustrator 15.0.0, SVG Export Plug-In . SVG Version: 6.00 Build 0)  -->
<!DOCTYPE svg PUBLIC "-//W3C//DTD SVG 1.1 Tiny//EN" "http://www.w3.org/Graphics/SVG/1.1/DTD/svg11-tiny.dtd">
<svg version="1.1" baseProfile="tiny" id="Layer_1" xmlns="http://www.w3.org/2000/svg" xmlns:xlink="http://www.w3.org/1999/xlink"
	 x="0px" y="0px" width="20px" height="20px" viewBox="0 0 20 20" xml:space="preserve">
<g>
	<path fill="#aaaaaa" d="M18.327,10.654h-12c-0.552,0-1-0.448-1-1s0.448-1,1-1h12c0.552,0,1,0.448,1,1S18.879,10.654,18.327,10.654z
		"/>
</g>
<g>
	<path fill="#aaaaaa" d="M18.327,15.654h-12c-0.552,0-1-0.448-1-1s0.448-1,1-1h12c0.552,0,1,0.448,1,1S18.879,15.654,18.327,15.654z
		"/>
</g>
<g>
	<path fill="#aaaaaa" d="M18.327,5.654h-12c-0.552,0-1-0.448-1-1s0.448-1,1-1h12c0.552,0,1,0.448,1,1S18.879,5.654,18.327,5.654z"/>
</g>
<circle fill="#aaaaaa" cx="2.378" cy="4.654" r="1.327"/>
<circle fill="#aaaaaa" cx="2.378" cy="9.654" r="1.327"/>
<circle fill="#aaaaaa" cx="2.378" cy="14.654" r="1.327"/>
</svg>
