<?xml version="1.0" encoding="utf-8"?>
<!-- Generator: Adobe Illustrator 15.0.0, SVG Export Plug-In . SVG Version: 6.00 Build 0)  -->
<!DOCTYPE svg PUBLIC "-//W3C//DTD SVG 1.1 Tiny//EN" "http://www.w3.org/Graphics/SVG/1.1/DTD/svg11-tiny.dtd">
<svg version="1.1" baseProfile="tiny" id="Layer_1" xmlns="http://www.w3.org/2000/svg" xmlns:xlink="http://www.w3.org/1999/xlink"
	 x="0px" y="0px" width="200px" height="200px" viewBox="0 0 200 200" xml:space="preserve">
<g>
	<path fill="#323232" d="M59.482,20.522c-4.829,0-9.561,1.665-13.359,4.775c-4.878,4.004-7.7,9.976-7.7,16.289v116.821
		c0,6.919,3.398,13.398,9.082,17.334c3.574,2.456,7.754,3.73,11.978,3.73c2.51,0,5.034-0.449,7.451-1.367l83.125-31.45
		c8.652-3.271,14.15-11.816,13.555-21.055l-4.492-69.639c-0.605-9.517-7.539-17.427-16.875-19.297L63.608,20.938
		C62.236,20.664,60.85,20.522,59.482,20.522"/>
	<path fill="#AD8AB4" d="M158.856,51.347c0.378,1.322,0.635,2.699,0.756,4.117c0.016,0.188,0.03,0.376,0.042,0.564l0.023,0.355
		C159.604,54.658,159.324,52.969,158.856,51.347 M38.001,39.451c-0.087,0.867-0.121,1.729-0.104,2.583v-0.411
		c0-0.072,0-0.145,0.001-0.217C37.903,40.747,37.938,40.095,38.001,39.451 M147.051,37.659c1.19,0.543,2.346,1.202,3.452,1.979
		c0.001,0,0,0,0.001,0.001c0.005,0.003,0.01,0.006,0.015,0.01c0.203,0.143,0.403,0.29,0.602,0.439
		c0.079,0.06,0.157,0.12,0.236,0.181c0.719,0.559,1.392,1.154,2.02,1.781C151.576,40.245,149.444,38.746,147.051,37.659
		 M45.575,25.078c-2.063,1.735-3.81,3.861-5.115,6.295c1.002-1.864,2.297-3.612,3.884-5.173c0.001-0.001,0.002-0.002,0.003-0.003
		c0.001-0.001,0.003-0.003,0.004-0.004c0.108-0.106,0.217-0.211,0.328-0.315C44.972,25.601,45.271,25.334,45.575,25.078
		 M64.153,20.508c1.353,0.298,2.657,0.723,3.901,1.262c0.079,0.034,0.158,0.069,0.237,0.104l69.278,13.855
		c0.184-0.004,0.368-0.007,0.551-0.007c0.214,0,0.427,0.003,0.642,0.01c1.06,0.031,2.102,0.139,3.122,0.319L64.153,20.508
		 M59.459,19.997c-1.782,0-3.532,0.222-5.214,0.644c1.607-0.4,3.285-0.621,5.012-0.639c0.004,0,0.01,0,0.015,0h0.001
		c0.047,0,0.093,0,0.139-0.001h0c0.005,0,0.01,0,0.016,0c0,0,0.002,0,0.002,0c0.003,0,0.007,0,0.01,0c0.014,0,0.028,0,0.042,0
		c0.714,0,1.419,0.035,2.115,0.103C60.881,20.032,60.167,19.997,59.459,19.997"/>
	<path fill="#6F4C76" d="M68.292,21.874c2.393,1.069,4.631,2.595,6.579,4.575c0.001,0.001,0.001,0.001,0.002,0.002
		c0.001,0.001,0.003,0.003,0.005,0.004c0.029,0.03,0.059,0.061,0.088,0.091l33.2,34.101l12.832-16.501
		c0.117-0.152,0.236-0.303,0.357-0.452c1.902-2.342,4.198-4.183,6.718-5.503c2.469-1.298,5.231-2.134,8.175-2.387
		c0.439-0.038,0.88-0.063,1.321-0.074L68.292,21.874"/>
	<path fill="#71D3E0" d="M159.677,56.384c0.034,0.821,0.022,1.649-0.04,2.483c-0.043,0.614-0.114,1.226-0.21,1.836l3.88,60.151
		c0.148,0.503,0.277,1.011,0.387,1.521c0.197,0.901,0.334,1.804,0.413,2.707L159.677,56.384 M157.268,47.36
		c0.409,0.789,0.768,1.601,1.074,2.428c0.191,0.512,0.362,1.032,0.515,1.559C158.457,49.952,157.922,48.62,157.268,47.36
		 M141.884,36.052l0.031,0.006c0.813,0.145,1.624,0.338,2.422,0.579C143.537,36.396,142.718,36.2,141.884,36.052"/>
	<path fill="#3395A2" d="M159.427,60.703c-0.301,1.902-0.859,3.779-1.682,5.576c-0.765,1.68-1.733,3.23-2.868,4.627l-16.307,20.97
		l19.17,19.69c1.143,1.123,2.17,2.384,3.053,3.769c1.112,1.737,1.95,3.597,2.515,5.519L159.427,60.703"/>
	<path fill="#59B0C8" d="M159.654,56.028c0.056,0.944,0.051,1.893-0.017,2.839c0.062-0.834,0.074-1.663,0.04-2.483L159.654,56.028
		 M158.342,49.789c0.678,1.83,1.104,3.741,1.271,5.676c-0.121-1.418-0.378-2.795-0.756-4.117
		C158.704,50.82,158.533,50.3,158.342,49.789 M150.519,39.649c0.202,0.142,0.403,0.289,0.602,0.439
		C150.922,39.939,150.722,39.792,150.519,39.649 M150.503,39.638c0,0,0.001,0.001,0.001,0.001
		C150.503,39.639,150.504,39.639,150.503,39.638 M138.762,35.732c1.054,0.031,2.108,0.139,3.153,0.326l-0.031-0.006
		C140.864,35.871,139.822,35.763,138.762,35.732"/>
	<path fill="#469DB6" d="M157.745,66.279c-0.683,1.492-1.548,2.93-2.599,4.281l-0.269,0.346
		C156.011,69.509,156.979,67.959,157.745,66.279 M121.354,43.694c-0.121,0.149-0.24,0.3-0.357,0.452l0.068-0.087
		C121.161,43.936,121.257,43.814,121.354,43.694 M136.248,35.804c-2.944,0.253-5.706,1.089-8.175,2.387
		C130.627,36.852,133.411,36.049,136.248,35.804"/>
	<path fill="#71D3E0" d="M150.734,146.958c-0.313,0.127-0.628,0.247-0.946,0.358l-0.007,0.003
		C150.103,147.206,150.421,147.085,150.734,146.958 M163.997,129.824c-0.082,0.608-0.19,1.211-0.323,1.808
		c-0.229,1.039-0.536,2.064-0.92,3.066C163.35,133.148,163.772,131.515,163.997,129.824"/>
	<path fill="#9FC699" d="M63.394,179.646c-0.956,0.175-1.933,0.287-2.929,0.332C60.133,179.992,59.8,180,59.467,180
		c-1.07,0-2.143-0.08-3.208-0.239c1.062,0.162,2.141,0.244,3.227,0.244C60.782,180.005,62.09,179.887,63.394,179.646
		 M42.171,171.317c1.397,1.876,3.075,3.487,4.948,4.793c-0.567-0.397-1.114-0.821-1.64-1.27
		C44.224,173.773,43.121,172.589,42.171,171.317 M37.896,157.916c-0.034,1.455,0.08,2.926,0.351,4.393
		c-0.172-0.944-0.283-1.909-0.328-2.892c-0.019-0.409-0.027-0.818-0.023-1.229V157.916 M149.782,147.319
		c-0.783,0.276-1.586,0.508-2.41,0.693c0,0,0,0-0.001,0c-0.002,0-0.003,0.001-0.006,0.001c-0.575,0.13-1.155,0.235-1.737,0.317
		l-74.219,28.081c-0.804,0.533-1.638,1.008-2.496,1.423c-0.434,0.211-0.876,0.408-1.326,0.59L149.782,147.319"/>
	<path fill="#61895B" d="M111.813,126.282L76.66,171.487c-0.246,0.323-0.5,0.637-0.763,0.946c-1.334,1.563-2.848,2.893-4.488,3.979
		l74.219-28.081c-0.743,0.105-1.491,0.171-2.24,0.198c-0.272,0.01-0.542,0.015-0.811,0.015c-2.703,0-5.303-0.503-7.705-1.425
		c-2.803-1.072-5.426-2.749-7.666-5.027c-0.039-0.04-0.078-0.08-0.117-0.12L111.813,126.282"/>
	<path fill="#9FC699" d="M159.769,140.043c-0.521,0.683-1.088,1.34-1.702,1.97c-0.804,0.826-1.673,1.588-2.602,2.279
		c-0.405,0.301-0.816,0.585-1.236,0.854C156.398,143.763,158.261,142.026,159.769,140.043 M164.107,125.082l0.022,0.346
		c0.017,0.248,0.03,0.495,0.04,0.743c0.046,1.24-0.015,2.461-0.173,3.653C164.207,128.268,164.248,126.678,164.107,125.082"/>
	<path fill="#75B98F" d="M147.371,148.013c-0.001,0-0.004,0.001-0.006,0.001C147.367,148.014,147.368,148.013,147.371,148.013
		 M149.789,147.316c-0.794,0.28-1.601,0.512-2.417,0.696c0.824-0.186,1.627-0.417,2.41-0.693L149.789,147.316 M158.067,142.013
		c-0.135,0.138-0.272,0.276-0.412,0.411c-0.697,0.679-1.43,1.302-2.189,1.868C156.394,143.602,157.264,142.839,158.067,142.013
		 M164.169,126.171c0.066,1.83-0.099,3.667-0.496,5.461c0.133-0.597,0.241-1.2,0.323-1.808
		C164.155,128.632,164.215,127.411,164.169,126.171 M163.694,122.375c0.218,1.007,0.363,2.028,0.436,3.052l-0.022-0.346
		C164.028,124.18,163.892,123.277,163.694,122.375"/>
	<path fill="#62A67D" d="M134.872,147.12c2.401,0.922,5.002,1.425,7.705,1.425c0.27,0,0.539-0.005,0.811-0.015
		c-0.263,0.009-0.525,0.014-0.788,0.014C139.976,148.544,137.353,148.068,134.872,147.12 M127.089,141.973
		c0.039,0.04,0.078,0.08,0.117,0.12c-0.025-0.025-0.05-0.051-0.075-0.077L127.089,141.973 M157.739,111.566l0.325,0.334
		c1.043,1.071,1.953,2.223,2.729,3.435C159.909,113.95,158.882,112.689,157.739,111.566"/>
	<path fill="#E0746D" d="M61.598,20.104c0.226,0.022,0.451,0.048,0.677,0.078c0.585,0.076,1.166,0.175,1.743,0.299l0.135,0.027
		C63.318,20.324,62.465,20.188,61.598,20.104"/>
	<path fill="#C85056" d="M64.018,20.48c1.376,0.294,2.729,0.724,4.037,1.29c-1.244-0.539-2.549-0.964-3.901-1.262L64.018,20.48
		 M59.273,20.002L59.273,20.002L59.273,20.002 M59.413,20.001L59.413,20.001L59.413,20.001 M59.431,20.001c0,0-0.002,0-0.002,0
		C59.429,20.001,59.43,20.001,59.431,20.001 M59.482,20.001c-0.014,0-0.028,0-0.042,0c0.014,0,0.026,0,0.04,0
		c0.934,0,1.868,0.06,2.794,0.181c-0.226-0.03-0.451-0.056-0.677-0.078C60.902,20.036,60.196,20.001,59.482,20.001"/>
	<path fill="#E0746D" d="M54.245,20.641c-0.925,0.23-1.825,0.52-2.698,0.866c0.611-0.241,1.23-0.454,1.857-0.637
		C53.683,20.788,53.962,20.711,54.245,20.641"/>
	<path fill="#C85056" d="M44.347,26.196c-0.001,0.001-0.002,0.002-0.003,0.003C44.345,26.198,44.346,26.197,44.347,26.196
		 M44.679,25.876c-0.111,0.104-0.219,0.209-0.328,0.315c0.024-0.024,0.048-0.048,0.073-0.071
		C44.509,26.038,44.594,25.957,44.679,25.876 M59.257,20.002c-1.727,0.018-3.405,0.238-5.012,0.639
		c-0.283,0.071-0.563,0.147-0.841,0.229C55.314,20.311,57.284,20.022,59.257,20.002"/>
	<path fill="#B53E44" d="M74.877,26.455c0.024,0.024,0.048,0.049,0.072,0.074l0.017,0.017
		C74.936,26.516,74.906,26.485,74.877,26.455 M74.87,26.449c0.001,0.001,0.001,0.001,0.002,0.002
		C74.871,26.45,74.871,26.45,74.87,26.449"/>
	<path fill="#E0746D" d="M39.59,33.191c-0.827,1.957-1.374,4.059-1.589,6.26c0.021-0.213,0.046-0.428,0.074-0.643
		C38.323,36.89,38.829,34.998,39.59,33.191"/>
	<path fill="#C85056" d="M38.075,38.809c-0.028,0.214-0.053,0.429-0.074,0.643c-0.063,0.644-0.098,1.296-0.104,1.955
		C37.905,40.538,37.964,39.67,38.075,38.809"/>
	<path fill="#E0746D" d="M52.932,178.987c0.007,0.002,0.014,0.005,0.021,0.007C52.946,178.992,52.938,178.989,52.932,178.987
		 M67.587,178.426l-0.098,0.037c-0.731,0.291-1.474,0.541-2.229,0.75c-0.621,0.173-1.243,0.317-1.867,0.433
		C64.848,179.379,66.251,178.967,67.587,178.426 M47.119,176.11c1.763,1.233,3.718,2.21,5.812,2.876
		c-1.803-0.574-3.553-1.394-5.202-2.466C47.523,176.387,47.321,176.25,47.119,176.11 M38.247,162.309
		c0.358,1.964,0.982,3.837,1.834,5.578c-0.578-1.187-1.043-2.417-1.394-3.677C38.511,163.578,38.364,162.943,38.247,162.309
		 M37.896,42.034v115.882c0.021-0.915,0.102-1.824,0.237-2.72c0.078-0.517,0.174-1.031,0.289-1.543V46.349
		C38.105,44.947,37.925,43.503,37.896,42.034"/>
	<path fill="#A2362F" d="M38.423,46.349v107.303c0.541-2.401,1.502-4.74,2.896-6.905c0.418-0.652,0.872-1.283,1.36-1.89
		l38.389-49.365v-0.79L44.235,56.87c-0.422-0.422-0.826-0.86-1.211-1.314c-2.004-2.357-3.42-5.04-4.249-7.856
		C38.644,47.254,38.526,46.804,38.423,46.349"/>
	<path fill="#C85056" d="M37.896,41.623v0.411c0.029,1.469,0.208,2.914,0.526,4.315v-0.011
		C38.074,44.787,37.899,43.205,37.896,41.623"/>
	<path fill="#B53E44" d="M43.024,55.556c0.385,0.454,0.789,0.893,1.211,1.314l-0.219-0.226C43.671,56.29,43.34,55.927,43.024,55.556
		 M38.423,46.338v0.011c0.103,0.455,0.221,0.905,0.353,1.351C38.643,47.249,38.525,46.795,38.423,46.338"/>
	<path fill="#C3634E" d="M65.261,179.213c-1.565,0.433-3.175,0.689-4.795,0.764c0.996-0.045,1.973-0.157,2.929-0.332
		C64.018,179.53,64.64,179.386,65.261,179.213 M68.913,177.835c-0.468,0.227-0.942,0.436-1.423,0.627l0.098-0.037
		C68.037,178.244,68.479,178.046,68.913,177.835 M45.479,174.841c0.526,0.449,1.073,0.872,1.64,1.27
		c0.202,0.14,0.404,0.277,0.61,0.41c-0.51-0.332-1.009-0.688-1.498-1.067C45.975,175.254,45.724,175.049,45.479,174.841
		 M37.919,159.417c0.045,0.983,0.156,1.948,0.328,2.892c0.117,0.634,0.264,1.269,0.44,1.9
		C38.253,162.645,37.996,161.035,37.919,159.417 M38.134,155.195c-0.136,0.896-0.216,1.805-0.237,2.72v0.272
		C37.906,157.189,37.985,156.188,38.134,155.195"/>
	<path fill="#B1503C" d="M76.66,171.487l-0.137,0.177c-0.204,0.263-0.413,0.519-0.626,0.769
		C76.16,172.125,76.414,171.811,76.66,171.487 M42.68,144.857c-0.488,0.606-0.942,1.237-1.36,1.89
		c0.347-0.54,0.722-1.068,1.123-1.584L42.68,144.857"/>
	<path fill="#C27792" d="M59.272,20.002c-0.004,0-0.01,0-0.015,0C59.262,20.002,59.267,20.002,59.272,20.002 M59.412,20.001
		c-0.046,0-0.092,0-0.139,0.001C59.32,20.001,59.366,20.001,59.412,20.001 M59.428,20.001c-0.005,0-0.01,0-0.016,0
		C59.418,20.001,59.423,20.001,59.428,20.001 M59.441,20.001c-0.003,0-0.007,0-0.01,0C59.435,20.001,59.438,20.001,59.441,20.001"/>
	<path fill="#FAC8C7" d="M51.547,21.506c-2.126,0.839-4.146,2.029-5.973,3.571c0.103-0.087,0.207-0.173,0.312-0.258
		C47.58,23.445,49.486,22.321,51.547,21.506"/>
	<path fill="#C27792" d="M45.887,24.82c-0.105,0.085-0.209,0.171-0.312,0.258c-0.304,0.256-0.603,0.523-0.896,0.799
		C45.068,25.51,45.471,25.157,45.887,24.82 M68.054,21.77c0.079,0.034,0.158,0.069,0.236,0.104h0.001
		C68.212,21.839,68.133,21.804,68.054,21.77"/>
	<path fill="#964B67" d="M68.291,21.874c2.475,1.107,4.704,2.668,6.58,4.575C72.923,24.469,70.684,22.943,68.291,21.874
		L68.291,21.874"/>
	<polyline fill="#C27792" points="44.352,26.192 44.347,26.196 44.352,26.192 	"/>
	<path fill="#FAC8C7" d="M40.459,31.373c-0.32,0.595-0.609,1.201-0.869,1.818c0.112-0.265,0.229-0.527,0.351-0.786
		C40.105,32.055,40.278,31.711,40.459,31.373"/>
	<path fill="#C27792" d="M44.344,26.199c-1.587,1.561-2.882,3.309-3.884,5.173c-0.181,0.338-0.354,0.682-0.518,1.032
		C41.036,30.08,42.534,27.98,44.344,26.199"/>
	<polyline fill="#964B67" points="74.872,26.451 74.877,26.455 74.872,26.451 	"/>
	<path fill="#FAC8C7" d="M154.229,145.147c-0.059,0.037-0.118,0.075-0.176,0.111c-1.047,0.657-2.157,1.227-3.319,1.7
		C151.939,146.468,153.11,145.864,154.229,145.147 M162.753,134.699c-0.534,1.388-1.208,2.708-2.005,3.945
		c-0.308,0.478-0.634,0.945-0.979,1.399C161.036,138.385,162.031,136.582,162.753,134.699"/>
	<polyline fill="#6B3937" points="81.068,67.917 81.068,94.703 81.41,95.053 99.626,71.628 81.068,67.917 	"/>
	<path fill="#964B67" d="M74.965,26.546c3.777,3.888,6.103,9.192,6.103,15.041v26.33l18.558,3.711l8.54-10.981L74.965,26.546"/>
	<path fill="#98A9B0" d="M163.307,120.854l0.001,0.015c0.148,0.5,0.276,1.003,0.386,1.506
		C163.584,121.865,163.455,121.357,163.307,120.854"/>
	<path fill="#6C7E86" d="M160.792,115.335c0.785,1.232,1.456,2.562,1.994,3.982c0.195,0.514,0.369,1.032,0.522,1.551l-0.001-0.015
		C162.742,118.932,161.904,117.072,160.792,115.335 M138.569,91.876l-14.905,19.167l11.293-4.274
		c2.516-0.952,5.097-1.403,7.636-1.403c5.669,0,11.126,2.251,15.146,6.2L138.569,91.876"/>
	<path fill="#98A9B0" d="M154.053,145.258c-1.185,0.74-2.459,1.375-3.815,1.888l-0.45,0.17c0.317-0.112,0.633-0.231,0.946-0.358
		C151.896,146.485,153.006,145.915,154.053,145.258 M163.674,131.632c-0.555,2.492-1.548,4.868-2.925,7.012
		c0.797-1.237,1.471-2.557,2.005-3.945C163.138,133.697,163.444,132.671,163.674,131.632"/>
	<path fill="#B8A07F" d="M147.365,148.014c-0.569,0.128-1.148,0.234-1.735,0.317l-0.002,0
		C146.21,148.25,146.79,148.144,147.365,148.014 M147.372,148.013L147.372,148.013C147.371,148.013,147.371,148.013,147.372,148.013
		"/>
	<path fill="#8C7654" d="M145.63,148.331c-0.541,0.076-1.089,0.132-1.643,0.168c-0.2,0.013-0.4,0.023-0.599,0.031
		c0.749-0.027,1.497-0.093,2.24-0.198L145.63,148.331 M127.206,142.093c2.24,2.278,4.863,3.955,7.666,5.027
		C131.972,146.006,129.359,144.281,127.206,142.093 M120.226,115.465l-8.412,10.817l15.276,15.691
		c-3.443-3.553-5.689-8.302-6.033-13.626L120.226,115.465"/>
	<path fill="#B8A07F" d="M155.466,144.292c-0.457,0.34-0.928,0.662-1.413,0.966c0.059-0.037,0.118-0.074,0.176-0.111
		C154.649,144.878,155.061,144.593,155.466,144.292 M160.749,138.644c-0.78,1.209-1.68,2.339-2.681,3.369
		c0.614-0.63,1.18-1.288,1.702-1.97C160.114,139.589,160.441,139.122,160.749,138.644 M164.13,125.428l0.009,0.141
		c0.013,0.201,0.023,0.402,0.031,0.602C164.16,125.923,164.147,125.675,164.13,125.428"/>
	<path fill="#9A9778" d="M163.308,120.869l0.305,4.731c0.596,9.238-4.902,17.783-13.555,21.055l-4.429,1.676
		c0.587-0.083,1.166-0.188,1.735-0.317c0.001,0,0.004-0.001,0.006-0.001h0.001c0.816-0.184,1.623-0.416,2.417-0.696l0.45-0.17
		c1.356-0.513,2.63-1.148,3.815-1.888c0.484-0.304,0.956-0.626,1.413-0.966c0.76-0.566,1.492-1.189,2.189-1.868
		c0.14-0.135,0.277-0.273,0.412-0.411c1.001-1.03,1.901-2.16,2.681-3.369c1.377-2.144,2.37-4.52,2.925-7.012
		c0.396-1.795,0.562-3.631,0.496-5.461c-0.007-0.2-0.018-0.401-0.031-0.602l-0.009-0.141c-0.072-1.024-0.218-2.045-0.436-3.052
		C163.584,121.872,163.456,121.37,163.308,120.869"/>
	<path fill="#8D8A6C" d="M142.594,105.366c-2.54,0-5.121,0.451-7.636,1.403l-11.293,4.274l-3.438,4.421l0.831,12.882
		c0.343,5.324,2.59,10.073,6.033,13.626l0.042,0.042c0.024,0.026,0.05,0.052,0.075,0.077c2.153,2.188,4.766,3.913,7.666,5.027
		c2.481,0.949,5.104,1.424,7.728,1.424c0.263,0,0.525-0.005,0.788-0.014c0.199-0.007,0.399-0.018,0.599-0.031
		c0.554-0.036,1.102-0.092,1.643-0.168l4.429-1.676c8.652-3.271,14.15-11.816,13.555-21.055l-0.305-4.731
		c-0.153-0.519-0.327-1.037-0.522-1.551c-0.538-1.42-1.208-2.75-1.994-3.982c-0.776-1.212-1.685-2.364-2.729-3.435l-0.325-0.334
		C153.72,107.617,148.263,105.366,142.594,105.366"/>
	<path fill="#C27792" d="M37.897,41.406c-0.001,0.072-0.001,0.145-0.001,0.217v-0.036C37.896,41.526,37.897,41.466,37.897,41.406"/>
	<path fill="#E56861" d="M39.941,32.405c-0.122,0.259-0.239,0.521-0.351,0.786c-0.762,1.807-1.268,3.699-1.515,5.618
		c0.063-0.484,0.143-0.969,0.24-1.455C38.665,35.606,39.217,33.95,39.941,32.405 M53.404,20.87
		c-0.626,0.183-1.246,0.396-1.857,0.637c-2.061,0.815-3.967,1.938-5.661,3.313C48.098,23.029,50.653,21.68,53.404,20.87
		 M62.274,20.182c0.479,0.063,0.96,0.142,1.441,0.238l0.302,0.061C63.44,20.357,62.859,20.257,62.274,20.182"/>
	<path fill="#B93C35" d="M44.235,56.87l36.833,37.833V67.917L55.25,62.754C50.915,61.887,47.144,59.777,44.235,56.87 M38.776,47.7
		c0.829,2.816,2.244,5.499,4.249,7.856C41.088,53.271,39.633,50.594,38.776,47.7"/>
	<path fill="#D34E51" d="M59.48,20.001c-0.013,0-0.026,0-0.04,0c-0.003,0-0.006,0-0.01,0c0,0-0.002,0-0.002,0
		c-0.005,0-0.01,0-0.016,0h0c-0.046,0-0.092,0-0.139,0.001h-0.001c-0.005,0-0.01,0-0.015,0c-1.973,0.021-3.943,0.309-5.853,0.868
		c-2.751,0.81-5.307,2.16-7.518,3.95c-0.416,0.337-0.818,0.69-1.208,1.057c-0.085,0.081-0.17,0.162-0.254,0.244
		c-0.025,0.023-0.049,0.047-0.073,0.071c-0.001,0.001-0.003,0.003-0.004,0.004c-0.001,0.001-0.002,0.002-0.003,0.003
		c-1.81,1.781-3.308,3.88-4.402,6.206c-0.725,1.545-1.276,3.201-1.626,4.949c-0.097,0.486-0.177,0.971-0.24,1.455
		c-0.111,0.862-0.17,1.729-0.178,2.597c0,0.06-0.001,0.121-0.001,0.181v0.036c0.002,1.582,0.178,3.164,0.526,4.716v-4.751
		c0-6.313,2.822-12.285,7.7-16.289c3.799-3.11,8.53-4.775,13.359-4.775c1.367,0,2.754,0.142,4.126,0.415l4.682,0.937
		c-0.079-0.035-0.157-0.07-0.236-0.104c-1.308-0.565-2.661-0.995-4.037-1.29l-0.302-0.061c-0.481-0.096-0.961-0.175-1.441-0.238
		C61.348,20.061,60.414,20.001,59.48,20.001"/>
	<path fill="#C74144" d="M59.482,20.522c-4.829,0-9.561,1.665-13.359,4.775c-4.878,4.004-7.7,9.976-7.7,16.289v4.751
		c0.103,0.457,0.22,0.911,0.353,1.361c0.857,2.894,2.312,5.571,4.249,7.856c0.316,0.372,0.646,0.734,0.992,1.089l0.219,0.226
		c2.909,2.907,6.679,5.017,11.014,5.884l25.819,5.163v-26.33c0-5.849-2.326-11.153-6.103-15.041l-0.017-0.017
		c-0.023-0.025-0.048-0.05-0.072-0.074c-0.001-0.001-0.003-0.003-0.005-0.004c-0.001-0.001-0.001-0.001-0.002-0.002
		c-1.876-1.907-4.105-3.467-6.58-4.575l-4.682-0.937C62.236,20.664,60.85,20.522,59.482,20.522"/>
	<path fill="#CCE1F2" d="M52.953,178.994c1.086,0.344,2.192,0.6,3.306,0.767c-0.13-0.02-0.259-0.041-0.389-0.063
		C54.873,179.53,53.899,179.294,52.953,178.994 M52.931,178.987L52.931,178.987L52.931,178.987 M40.081,167.886
		c0.583,1.196,1.28,2.345,2.09,3.431c-0.466-0.626-0.901-1.281-1.302-1.965C40.588,168.875,40.325,168.386,40.081,167.886
		 M153.376,42.05c0.386,0.387,0.758,0.789,1.113,1.203c1.074,1.25,2.009,2.627,2.778,4.107
		C156.27,45.436,154.97,43.641,153.376,42.05 M144.337,36.637c0.784,0.236,1.55,0.517,2.295,0.838
		c0.141,0.06,0.28,0.122,0.419,0.185C146.164,37.254,145.257,36.914,144.337,36.637"/>
	<polyline fill="#3D5263" points="81.41,95.053 81.068,95.492 81.068,127.164 104.163,118.424 81.41,95.053 	"/>
	<path fill="#9390BE" d="M159.612,55.464c0.013,0.152,0.024,0.303,0.034,0.456l0.007,0.108
		C159.643,55.84,159.628,55.652,159.612,55.464 M151.121,40.088c1.231,0.932,2.361,1.993,3.369,3.165
		c-0.355-0.414-0.727-0.816-1.113-1.203c-0.628-0.627-1.301-1.222-2.02-1.781C151.278,40.208,151.2,40.148,151.121,40.088
		 M150.504,39.64c0.004,0.003,0.01,0.007,0.015,0.01C150.514,39.646,150.509,39.643,150.504,39.64 M146.632,37.475
		c1.366,0.588,2.664,1.315,3.871,2.164c-1.105-0.777-2.261-1.436-3.452-1.979C146.912,37.596,146.773,37.535,146.632,37.475
		 M138.121,35.723c-0.184,0-0.368,0.002-0.551,0.007l0.001,0c0.186-0.005,0.371-0.007,0.556-0.007c0.212,0,0.425,0.003,0.636,0.01
		C138.548,35.726,138.334,35.723,138.121,35.723"/>
	<path fill="#676493" d="M120.998,44.146l-12.832,16.501l9.129,9.377l-0.73-11.326C116.213,53.255,117.912,48.153,120.998,44.146
		 M128.073,38.191c-2.521,1.32-4.816,3.162-6.718,5.503C123.187,41.441,125.467,39.56,128.073,38.191 M137.569,35.729
		c-0.441,0.011-0.882,0.036-1.321,0.074c0.156-0.014,0.311-0.025,0.468-0.035c0.286-0.019,0.57-0.031,0.854-0.039L137.569,35.729"/>
	<path fill="#69C3DC" d="M159.637,58.867c-0.044,0.604-0.115,1.211-0.211,1.819l0.001,0.017
		C159.523,60.093,159.594,59.481,159.637,58.867 M154.489,43.253c1.653,1.93,2.961,4.145,3.853,6.535
		c-0.307-0.828-0.665-1.639-1.074-2.428C156.498,45.881,155.563,44.503,154.489,43.253 M141.915,36.058l0.423,0.084
		c1.503,0.301,2.939,0.751,4.294,1.332c-0.745-0.321-1.511-0.602-2.295-0.838C143.539,36.396,142.729,36.203,141.915,36.058"/>
	<path fill="#3E97B1" d="M154.876,70.907c-4.031,4.963-10.162,7.993-16.748,7.993c-1.403,0-2.827-0.137-4.256-0.423l-10.367-2.073
		l15.064,15.473L154.876,70.907 M159.426,60.687c-0.045,0.285-0.096,0.57-0.153,0.856c-0.334,1.668-0.852,3.253-1.528,4.737
		c0.823-1.797,1.381-3.674,1.682-5.576L159.426,60.687"/>
	<path fill="#58AACC" d="M138.126,35.723c-0.185,0-0.37,0.002-0.556,0.007l4.675,0.935c9.336,1.87,16.27,9.78,16.875,19.297
		l0.305,4.725c0.097-0.608,0.167-1.215,0.211-1.819c0.068-0.946,0.073-1.895,0.017-2.839l-0.007-0.108
		c-0.01-0.153-0.021-0.304-0.034-0.456c-0.166-1.935-0.592-3.846-1.271-5.676c-0.891-2.391-2.199-4.605-3.853-6.535
		c-1.008-1.172-2.138-2.233-3.369-3.165c-0.199-0.15-0.4-0.297-0.602-0.439c-0.004-0.003-0.01-0.007-0.015-0.01
		c0,0-0.001-0.001-0.001-0.001c-1.207-0.848-2.504-1.575-3.871-2.164c-1.355-0.581-2.791-1.031-4.294-1.332l-0.423-0.084
		c-1.045-0.187-2.099-0.294-3.153-0.326C138.551,35.726,138.339,35.723,138.126,35.723"/>
	<path fill="#4B9DBF" d="M137.571,35.73c-0.284,0.007-0.569,0.02-0.854,0.039c-0.157,0.01-0.313,0.021-0.468,0.035
		c-2.837,0.246-5.621,1.048-8.175,2.387c-2.605,1.369-4.886,3.25-6.718,5.503c-0.097,0.12-0.194,0.242-0.289,0.364l-0.068,0.087
		c-3.086,4.007-4.784,9.109-4.433,14.553l0.73,11.326l6.21,6.379l10.367,2.073c1.429,0.286,2.853,0.423,4.256,0.423
		c6.586,0,12.717-3.029,16.748-7.993l0.269-0.346c1.051-1.352,1.917-2.789,2.599-4.281c0.676-1.484,1.194-3.069,1.528-4.737
		c0.057-0.286,0.108-0.571,0.153-0.856l-0.305-4.725c-0.605-9.517-7.539-17.427-16.875-19.297L137.571,35.73"/>
	<path fill="#8ABAAB" d="M55.87,179.698c0.13,0.022,0.259,0.043,0.389,0.063c1.065,0.16,2.138,0.239,3.208,0.239
		c0.333,0,0.666-0.008,0.998-0.023c-0.326,0.015-0.653,0.022-0.983,0.022C58.251,179.999,57.045,179.896,55.87,179.698
		 M71.409,176.412l-0.015,0.006c-0.792,0.525-1.62,0.999-2.48,1.417C69.771,177.42,70.605,176.945,71.409,176.412 M40.87,169.352
		c0.401,0.684,0.835,1.339,1.302,1.965c0.949,1.272,2.053,2.456,3.308,3.524C43.655,173.285,42.093,171.43,40.87,169.352
		 M37.896,158.188c-0.004,0.41,0.004,0.819,0.023,1.229c-0.015-0.333-0.023-0.667-0.023-1.003V158.188"/>
	<path fill="#5E8F80" d="M75.896,172.433c-1.307,1.527-2.822,2.871-4.503,3.985l0.015-0.006
		C73.048,175.326,74.563,173.997,75.896,172.433 M104.163,118.424l-23.094,8.74v31.249c0,4.915-1.643,9.446-4.409,13.074
		l35.154-45.205L104.163,118.424"/>
	<path fill="#B6818D" d="M67.49,178.463l-0.367,0.139c-0.617,0.233-1.238,0.437-1.862,0.611
		C66.016,179.004,66.759,178.754,67.49,178.463 M47.729,176.521c1.648,1.072,3.399,1.893,5.202,2.466h0
		c0.007,0.002,0.015,0.005,0.021,0.007c0.946,0.3,1.92,0.536,2.917,0.704C52.966,179.202,50.192,178.116,47.729,176.521
		 M38.688,164.209c0.351,1.26,0.815,2.491,1.394,3.677c0.244,0.5,0.507,0.989,0.789,1.466c-0.607-1.036-1.136-2.138-1.576-3.299
		C39.063,165.441,38.861,164.827,38.688,164.209 M38.423,153.652c-0.115,0.512-0.211,1.027-0.289,1.543
		c0.078-0.515,0.174-1.025,0.289-1.531V153.652"/>
	<path fill="#8B5561" d="M41.319,146.747c-1.395,2.165-2.355,4.504-2.896,6.905v0.013C38.979,151.207,39.961,148.864,41.319,146.747
		 M81.068,95.492L42.68,144.857c2.33-2.893,5.437-5.223,9.163-6.632l29.226-11.061V95.492"/>
	<path fill="#A27477" d="M38.423,153.665c-0.115,0.506-0.211,1.016-0.289,1.531c-0.149,0.993-0.228,1.994-0.237,2.993v0.225
		c0,0.336,0.008,0.671,0.023,1.003c0.076,1.619,0.334,3.229,0.768,4.792c0.173,0.618,0.375,1.232,0.606,1.844
		c0.439,1.161,0.968,2.263,1.576,3.299c1.224,2.078,2.785,3.933,4.609,5.489c0.245,0.208,0.496,0.413,0.752,0.612
		c0.489,0.38,0.988,0.735,1.498,1.067c2.463,1.596,5.236,2.682,8.141,3.178c1.175,0.198,2.381,0.301,3.612,0.301
		c0.33,0,0.657-0.007,0.983-0.022c1.621-0.075,3.23-0.331,4.795-0.764c0.624-0.174,1.245-0.378,1.862-0.611l0.367-0.139
		c0.481-0.192,0.956-0.401,1.423-0.627c0.86-0.418,1.689-0.893,2.48-1.417l-4.46,1.688c-2.417,0.918-4.941,1.367-7.451,1.367
		c-4.224,0-8.403-1.274-11.978-3.73c-5.684-3.936-9.082-10.415-9.082-17.334V153.665"/>
	<path fill="#96676A" d="M81.068,127.164l-29.226,11.061c-3.726,1.41-6.833,3.739-9.163,6.632l-0.237,0.305
		c-0.401,0.516-0.776,1.045-1.123,1.584c-1.358,2.117-2.34,4.46-2.896,6.918v4.744c0,6.919,3.398,13.398,9.082,17.334
		c3.574,2.456,7.754,3.73,11.978,3.73c2.51,0,5.034-0.449,7.451-1.367l4.46-1.688c1.681-1.114,3.196-2.458,4.503-3.985
		c0.213-0.25,0.422-0.506,0.626-0.769l0.137-0.177c2.766-3.628,4.409-8.16,4.409-13.074V127.164"/>
	<polyline fill="#655767" points="99.626,71.628 81.41,95.053 104.163,118.424 120.029,112.419 117.63,75.229 99.626,71.628 	"/>
	<polyline fill="#836488" points="108.166,60.647 99.626,71.628 117.63,75.229 117.295,70.024 108.166,60.647 	"/>
	<polyline fill="#65879E" points="117.63,75.229 120.029,112.419 123.664,111.043 138.569,91.876 123.505,76.403 117.63,75.229 	"/>
	<polyline fill="#6E8CA8" points="117.295,70.024 117.63,75.229 123.505,76.403 117.295,70.024 	"/>
	<polyline fill="#7C827B" points="120.029,112.419 104.163,118.424 111.813,126.282 120.226,115.465 120.029,112.419 	"/>
	<polyline fill="#7C908C" points="123.664,111.043 120.029,112.419 120.226,115.465 123.664,111.043 	"/>
	<path fill="#FFFFFF" d="M67.9,41.587c0,4.648-3.77,8.423-8.418,8.423c-4.653,0-8.428-3.774-8.428-8.423
		c0-4.653,3.774-8.423,8.428-8.423C64.131,33.164,67.9,36.934,67.9,41.587"/>
	<path fill="#FFFFFF" d="M67.9,158.413c0,4.653-3.77,8.423-8.418,8.423c-4.653,0-8.428-3.77-8.428-8.423s3.774-8.428,8.428-8.428
		C64.131,149.985,67.9,153.76,67.9,158.413"/>
	<path fill="#FFFFFF" d="M146.533,57.31c0,4.658-3.779,8.428-8.428,8.428s-8.418-3.77-8.418-8.428c0-4.653,3.77-8.423,8.418-8.423
		S146.533,52.656,146.533,57.31"/>
	<path fill="#FFFFFF" d="M151.025,126.958c0,4.648-3.779,8.423-8.428,8.423s-8.418-3.774-8.418-8.423
		c0-4.653,3.77-8.423,8.418-8.423S151.025,122.305,151.025,126.958"/>
</g>
</svg>
