<?xml version="1.0" encoding="utf-8"?>
<!-- Generator: Adobe Illustrator 15.0.0, SVG Export Plug-In . SVG Version: 6.00 Build 0)  -->
<!DOCTYPE svg PUBLIC "-//W3C//DTD SVG 1.1 Tiny//EN" "http://www.w3.org/Graphics/SVG/1.1/DTD/svg11-tiny.dtd">
<svg version="1.1" baseProfile="tiny" id="Layer_1" xmlns="http://www.w3.org/2000/svg" xmlns:xlink="http://www.w3.org/1999/xlink"
	 x="0px" y="0px" width="20px" height="20px" viewBox="0 0 20 20" xml:space="preserve">
<g>
	<path fill="#aaaaaa" d="M6.695,12.558L3.85,8.654h1.412l2.157,3.137L9.57,8.654h1.396l-2.845,3.903l2.993,4.097H9.711l-2.292-3.315
		l-2.314,3.315H3.7L6.695,12.558z"/>
	<path fill="#aaaaaa" d="M15.827,9.654h-4V8.92l1.743-1.718c0.442-0.428,0.756-0.762,0.961-1.004
		c0.204-0.242,0.342-0.457,0.424-0.646c0.082-0.188,0.122-0.417,0.122-0.687c0-0.338-0.103-0.593-0.301-0.765
		c-0.199-0.172-0.455-0.258-0.77-0.258c-0.26,0-0.512,0.047-0.754,0.142C13.009,4.079,12.714,4.25,12.371,4.5l-0.494-0.658
		c0.652-0.552,1.357-0.829,2.113-0.829c0.658,0,1.17,0.162,1.535,0.485c0.365,0.324,0.549,0.764,0.549,1.322
		c0,0.397-0.111,0.785-0.332,1.161c-0.223,0.376-0.698,0.831-1.431,1.517l-1.299,1.156h2.814V9.654z"/>
</g>
</svg>
