<svg width="8" height="14" viewBox="0 0 8 14" fill="none" xmlns="http://www.w3.org/2000/svg">
<path fill-rule="evenodd" clip-rule="evenodd" d="M3.99295 11.7419C3.37385 11.7419 2.87139 12.2477 2.87139 12.871C2.87139 13.4942 3.37385 14 3.99295 14C4.61206 14 5.11452 13.4942 5.11452 12.871C5.11452 12.2477 4.61206 11.7419 3.99295 11.7419ZM3.99996 0C1.79451 0 0 1.80645 0 4.02658C0 4.52606 0.401072 4.92981 0.897253 4.92981C1.39343 4.92981 1.79451 4.52606 1.79451 4.02658C1.79451 2.80271 2.78418 1.80645 3.99996 1.80645C5.21573 1.80645 6.2054 2.80271 6.2054 4.02658C6.2054 5.36065 5.0623 5.96671 3.99996 5.96671C3.50377 5.96671 3.1027 6.37136 3.1027 6.86994V9.51639C3.1027 10.0159 3.50377 10.4196 3.99996 10.4196C4.49614 10.4196 4.89721 10.0159 4.89721 9.51639V7.68736C6.71594 7.32516 7.99991 5.87187 7.99991 4.02658C7.99991 1.80645 6.2054 0 3.99996 0Z" fill="#9BD5EF"/>
</svg>
