400 0 1 0        
7 Unknown 13 ACIS 5.0.1 NT 24 Thu Jul 23 16:01:37 2015
1 9.9999999999999995e-007 1e-010 
-0 body $-1 $2 $-1 $1 #                                                                                            
-1 transform $-1 1 0 0 0 1 0 0 0 1 0 0 0 1 0 0 0 #
-2 lump $-1 $-1 $3 $0 #
-3 shell $-1 $-1 $-1 $4 $-1 $2 #
-4 face $-1 $-1 $6 $3 $-1 $5 forward single #
-5 spline-surface $-1 forward { exactsur nubs 3 3 open open none none 7 7
        0 3 23.333333333333332 1 46.666666666666664 1 70 1 93.333333333333343 1 
        116.66666666666667 1 140 3 
        0 3 20.166666666666668 1 40.333333333333336 1 60.5 1 80.666666666666657 1 
        100.83333333333333 1 121 3 
        0 16 25.553953947300528 
        7.777777777777775 16 25.553953947300528 
        23.333333333333343 16 25.553953947300528 
        46.666666666666657 16 25.553953947300528 
        70.000000000000028 16 0 
        93.333333333333314 16 0 
        116.66666666666669 16 0 
        132.22222222222223 16 0 
        140 16 0 
        0 20.944444444444443 25.553953947300528 
        7.7777777777777724 20.944444444444443 25.553953947300528 
        23.333333333333332 20.944444444444446 25.553953947300528 
        46.666666666666643 20.944444444444443 25.553953947300528 
        70.000000000000014 20.944444444444446 0 
        93.3333333333333 20.944444444444443 0 
        116.66666666666663 20.944444444444446 0 
        132.22222222222217 20.944444444444443 0 
        139.99999999999997 20.944444444444443 0 
        0 30.833333333333339 25.553953947300528 
        7.7777777777777803 30.833333333333336 25.553953947300528 
        23.333333333333353 30.833333333333343 25.553953947300528 
        46.666666666666686 30.833333333333339 25.553953947300528 
        70.000000000000057 30.833333333333343 0 
        93.333333333333371 30.833333333333339 0 
        116.66666666666674 30.833333333333343 0 
        132.22222222222229 30.833333333333336 0 
        140.00000000000009 30.833333333333339 0 
        0 40.000000000000007 0 
        7.7777777777777777 40.000000000000007 0 
        23.333333333333346 40.000000000000064 0 
        46.666666666666686 40.000000000000007 0 
        69.999999999999972 45.666666666666671 0 
        93.3333333333334 54 18.553953947300542 
        116.66666666666663 54 18.553953947300542 
        132.22222222222234 54.000000000000014 18.553953947300542 
        139.99999999999997 54 18.553953947300542 
        0 60.500000000000014 0 
        7.7777777777777724 60.499999999999986 0 
        23.333333333333346 60.500000000000014 0 
        46.666666666666643 60.500000000000028 0 
        70.000000000000085 60.500000000000028 0 
        93.3333333333333 60.500000000000021 18.553953947300542 
        116.66666666666671 60.500000000000036 18.553953947300542 
        132.2222222222222 60.500000000000007 18.553953947300542 
        140.00000000000006 60.500000000000021 18.553953947300542 
        0 80.999999999999915 0 
        7.7777777777777759 80.999999999999872 0 
        23.33333333333335 81.000000000000085 0 
        46.666666666666693 80.999999999999886 0 
        70 75.333333333333314 0 
        93.333333333333385 67.000000000000014 18.553953947300542 
        116.66666666666671 67 18.553953947300542 
        132.22222222222223 67.000000000000057 18.553953947300542 
        140 67 18.553953947300542 
        0 90.166666666666742 25.553953947300528 
        7.7777777777777768 90.166666666666643 25.553953947300528 
        23.333333333333343 90.166666666666742 25.553953947300528 
        46.666666666666657 90.166666666666742 25.553953947300528 
        70.000000000000028 90.166666666666785 0 
        93.333333333333329 90.1666666666667 0 
        116.66666666666663 90.166666666666771 0 
        132.22222222222234 90.166666666666657 0 
        140 90.166666666666742 0 
        0 100.05555555555551 25.553953947300528 
        7.7777777777777706 100.05555555555551 25.553953947300528 
        23.33333333333335 100.0555555555556 25.553953947300528 
        46.666666666666693 100.05555555555554 25.553953947300528 
        70 100.05555555555551 0 
        93.3333333333334 100.05555555555559 0 
        116.6666666666667 100.05555555555556 0 
        132.22222222222211 100.05555555555557 0 
        140 100.05555555555551 0 
        0 105.00000000000001 25.553953947300528 
        7.777777777777775 104.99999999999999 25.553953947300528 
        23.333333333333343 105.00000000000003 25.553953947300528 
        46.666666666666657 105.00000000000001 25.553953947300528 
        70.000000000000028 105.00000000000003 0 
        93.333333333333314 105 0 
        116.66666666666669 105.00000000000004 0 
        132.22222222222223 104.99999999999999 0 
        140 105.00000000000001 0 
        0
        0
        0
        0
        0
        0
        0
        F 0 F 140 F 0 F 121 } F 0 F 140 F 0 F 121 #
-6 loop $-1 $-1 $7 $4 #
-7 coedge $-1 $9 $13 $-1 $15 forward $6 $8 #
-8 pcurve $-1 0 forward { exppc nubs 1 open 2
        0 1 140 1 
        0 0 
        140 0 
        0
        spline 0 { ref 0 } F 0 F 140 F 0 F 121 
        } 0 0 #
-9 coedge $-1 $11 $7 $-1 $17 forward $6 $10 #
-10 pcurve $-1 0 forward { exppc nubs 1 open 2
        0 1 121 1 
        140 0 
        140 121 
        0
        spline 0 { ref 0 } F 0 F 140 F 0 F 121 
        } 0 0 #
-11 coedge $-1 $13 $9 $-1 $19 forward $6 $12 #
-12 pcurve $-1 0 forward { exppc nubs 1 open 2
        -140 1 0 1 
        140 121 
        0 121 
        0
        spline 0 { ref 0 } F 0 F 140 F 0 F 121 
        } 0 0 #
-13 coedge $-1 $7 $11 $-1 $21 forward $6 $14 #
-14 pcurve $-1 0 forward { exppc nubs 1 open 2
        -121 1 0 1 
        0 121 
        0 0 
        0
        spline 0 { ref 0 } F 0 F 140 F 0 F 121 
        } 0 0 #
-15 edge $-1 $23 $25 $7 $16 forward #
-16 intcurve-curve $-1 forward { exactcur nubs 3 open 7
        0 3 23.333333333333332 1 46.666666666666664 1 70 1 93.333333333333343 1 
        116.66666666666667 1 140 3 
        0 16 25.553953947300528 
        7.777777777777775 16 25.553953947300528 
        23.333333333333343 16 25.553953947300528 
        46.666666666666657 16 25.553953947300528 
        70.000000000000028 16 0 
        93.333333333333314 16 0 
        116.66666666666669 16 0 
        132.22222222222223 16 0 
        140 16 0 
        0
        null_surface
        null_surface
        nullbs
        nullbs
        I I
        0
        0
        0
        F 0 F 140 } F 0 F 140 #
-17 edge $-1 $25 $27 $9 $18 forward #
-18 intcurve-curve $-1 forward { exactcur nubs 3 open 7
        0 3 20.166666666666668 1 40.333333333333336 1 60.5 1 80.666666666666657 1 
        100.83333333333333 1 121 3 
        140 16 0 
        139.99999999999997 20.944444444444443 0 
        140.00000000000009 30.833333333333339 0 
        139.99999999999997 54 18.553953947300542 
        140.00000000000006 60.500000000000021 18.553953947300542 
        140 67 18.553953947300542 
        140 90.166666666666742 0 
        140 100.05555555555551 0 
        140 105.00000000000001 0 
        0
        null_surface
        null_surface
        nullbs
        nullbs
        I I
        0
        0
        0
        F 0 F 121 } F 0 F 121 #
-19 edge $-1 $27 $29 $11 $20 forward #
-20 intcurve-curve $-1 forward { exactcur nubs 3 open 7
        -140 3 -116.66666666666667 1 -93.333333333333343 1 -70 1 -46.666666666666664 1 
        -23.333333333333332 1 -0 3 
        140 105.00000000000001 0 
        132.22222222222223 104.99999999999999 0 
        116.66666666666669 105.00000000000004 0 
        93.333333333333314 105 0 
        70.000000000000028 105.00000000000003 0 
        46.666666666666657 105.00000000000001 25.553953947300528 
        23.333333333333343 105.00000000000003 25.553953947300528 
        7.777777777777775 104.99999999999999 25.553953947300528 
        0 105.00000000000001 25.553953947300528 
        0
        null_surface
        null_surface
        nullbs
        nullbs
        I I
        0
        0
        0
        F -140 F -0 } F -140 F -0 #
-21 edge $-1 $29 $23 $13 $22 forward #
-22 intcurve-curve $-1 forward { exactcur nubs 3 open 7
        -121 3 -100.83333333333333 1 -80.666666666666657 1 -60.5 1 -40.333333333333336 1 
        -20.166666666666668 1 -0 3 
        0 105.00000000000001 25.553953947300528 
        0 100.05555555555551 25.553953947300528 
        0 90.166666666666742 25.553953947300528 
        0 80.999999999999915 0 
        0 60.500000000000014 0 
        0 40.000000000000007 0 
        0 30.833333333333339 25.553953947300528 
        0 20.944444444444443 25.553953947300528 
        0 16 25.553953947300528 
        0
        null_surface
        null_surface
        nullbs
        nullbs
        I I
        0
        0
        0
        F -121 F -0 } F -121 F -0 #
-23 vertex $-1 $15 $24 #
-24 point $-1 0 16 25.553953947300528 #
-25 vertex $-1 $15 $26 #
-26 point $-1 140 16 0 #
-27 vertex $-1 $17 $28 #
-28 point $-1 140 105.00000000000001 0 #
-29 vertex $-1 $19 $30 #
-30 point $-1 0 105.00000000000001 25.553953947300528 #
End-of-ACIS-data
