700 0 1 0           
4 LibG 20 ASM 228.5.0.65535 NT 24 Wed Nov 23 17:56:19 2022 
304.8000000000000114 9.999999999999999547e-07 1.000000000000000036e-10 
body $-1 -1 $-1 $1 $-1 $-1 #
lump $-1 -1 $-1 $-1 $2 $0 #
shell $-1 -1 $-1 $-1 $-1 $3 $-1 $1 #
face $-1 -1 $-1 $4 $5 $2 $-1 $6 forward single #
face $-1 -1 $-1 $7 $8 $2 $-1 $9 forward single #
loop $-1 -1 $-1 $-1 $10 $3 #
sphere-surface $-1 -1 $-1 5 1 4 5 1 0 0 0 0 1 forward_v I I I I #
face $-1 -1 $-1 $-1 $11 $2 $-1 $12 forward single #
loop $-1 -1 $-1 $-1 $13 $4 #
sphere-surface $-1 -1 $-1 1 2 3 5 1 0 0 0 0 1 forward_v I I I I #
coedge $-1 -1 $-1 $14 $14 $13 $15 forward $5 $-1 #
loop $-1 -1 $-1 $-1 $16 $7 #
sphere-surface $-1 -1 $-1 5 2 8 5 1 0 0 0 0 1 forward_v I I I I #
coedge $-1 -1 $-1 $17 $17 $10 $15 reversed $8 $-1 #
coedge $-1 -1 $-1 $10 $10 $16 $18 forward $5 $-1 #
edge $-1 -1 $-1 $19 2.445689142933937799 $20 4.437538086748005206 $13 $21 forward @7 unknown #
coedge $-1 -1 $-1 $22 $22 $14 $18 reversed $11 $-1 #
coedge $-1 -1 $-1 $13 $13 $22 $23 forward $8 $-1 #
edge $-1 -1 $-1 $20 0.2897703044814489148 $19 2.263098191600467768 $16 $24 forward @7 unknown #
vertex $-1 -1 $-1 $23 $25 #
vertex $-1 -1 $-1 $15 $26 #
ellipse-curve $-1 -1 $-1 3 1.5 3.5 -0.9428090415820634673 0.2357022603955158668 -0.2357022603955158668 1.098126747211439547 0 -4.392506988845758187 1 I I #
coedge $-1 -1 $-1 $16 $16 $17 $23 reversed $11 $-1 #
edge $-1 -1 $-1 $19 -3.667895420416632302 $20 -0.2350466282442436605 $22 $27 forward @7 unknown #
ellipse-curve $-1 -1 $-1 5 1.5 6 0 0.2425356250363329691 0.9701425001453318764 0 4.419209404939516972 -1.104802351234879243 1 I I #
point $-1 -1 $-1 1.493490911467520554 -1.320829083303930673 6.705207270825983557 #
point $-1 -1 $-1 3.698428280451669714 5.734970497445345927 4.941257375638663518 #
ellipse-curve $-1 -1 $-1 3 2 5.5 0.6246950475544242876 0 0.7808688094430303872 0 3.84057287393430391 0 1 I I #
End-of-ACIS-data 