<?xml version="1.0" encoding="UTF-8"?>
<!DOCTYPE svg PUBLIC "-//W3C//DTD SVG 1.1//EN" "http://www.w3.org/Graphics/SVG/1.1/DTD/svg11.dtd">
<svg version="1.1" xmlns="http://www.w3.org/2000/svg" xmlns:xlink="http://www.w3.org/1999/xlink" x="0" y="0" width="20" height="20" viewBox="0, 0, 20, 20">
  <g id="Layer_2">
    <g>
      <path d="M11.722,10.944 L18.784,10.944 L18.784,18.444 L11.722,18.444 L11.722,10.944 z" fill="#FFFFFF"/>
      <path d="M11.722,10.944 L18.784,10.944 L18.784,18.444 L11.722,18.444 L11.722,10.944 z" fill-opacity="0" stroke="#B3B3B3" stroke-width="1"/>
    </g>
    <path d="M15.028,18.444 L18.403,15.096" fill-opacity="0" stroke="#B3B3B3" stroke-width="0.25"/>
    <path d="M16.565,18.444 L18.784,16.288" fill-opacity="0" stroke="#B3B3B3" stroke-width="0.25"/>
    <path d="M10.621,7.471 L16.309,1.94" fill-opacity="0" stroke="#B3B3B3" stroke-width="0.5"/>
    <path d="M9.809,6.627 L11.996,8.815" fill-opacity="0" stroke="#B3B3B3" stroke-width="0.5"/>
    <path d="M13.746,11.252 L11.934,13.002" fill-opacity="0" stroke="#B3B3B3" stroke-width="0.25"/>
    <path d="M12.09,14.471 L15.434,11.252" fill-opacity="0" stroke="#B3B3B3" stroke-width="0.25"/>
    <path d="M11.934,16.377 L17.121,11.096" fill-opacity="0" stroke="#B3B3B3" stroke-width="0.25"/>
    <path d="M12.09,17.94 L18.403,11.533" fill-opacity="0" stroke="#B3B3B3" stroke-width="0.25"/>
    <path d="M13.309,18.444 L18.784,12.913" fill-opacity="0" stroke="#B3B3B3" stroke-width="0.25"/>
    <path d="M15.519,1.119 L17.715,3.315" fill-opacity="0" stroke="#B3B3B3" stroke-width="0.5"/>
    <path d="M10.621,6.002 L10.621,8.971" fill-opacity="0" stroke="#B3B3B3" stroke-width="0.25"/>
    <path d="M16.362,0.494 L16.362,3.463" fill-opacity="0" stroke="#B3B3B3" stroke-width="0.25"/>
    <path d="M5.903,3.44 L5.903,11.34 C7.472,11.842 8.157,13.207 8.309,14.754 C8.309,16.792 6.7,18.444 4.715,18.444 C2.73,18.444 1.121,16.792 1.121,14.754 C1.17,13.349 1.866,12.058 3.184,11.489 L3.184,3.44 L5.903,3.44 z" fill-opacity="0" stroke="#B3B3B3" stroke-width="1"/>
  </g>
</svg>
