<?xml version="1.0" encoding="utf-8"?>
<!-- Generator: Adobe Illustrator 15.0.0, SVG Export Plug-In . SVG Version: 6.00 Build 0)  -->
<!DOCTYPE svg PUBLIC "-//W3C//DTD SVG 1.1 Tiny//EN" "http://www.w3.org/Graphics/SVG/1.1/DTD/svg11-tiny.dtd">
<svg version="1.1" baseProfile="tiny" id="Layer_1" xmlns="http://www.w3.org/2000/svg" xmlns:xlink="http://www.w3.org/1999/xlink"
	 x="0px" y="0px" width="80px" height="80px" viewBox="0 0 80 80" xml:space="preserve">
<path fill-rule="evenodd" fill="#9F9F9F" d="M22.618,3.617c0-0.008,0-0.016,0-0.023c0.344,0,0.688,0,1.031,0
	C23.351,3.646,22.954,3.602,22.618,3.617z"/>
<path fill-rule="evenodd" fill="#9F9F9F" d="M26.397,3.594c0.33,0,0.658,0,0.986,0c0,0.008,0,0.016,0,0.023
	C27.063,3.602,26.681,3.646,26.397,3.594z"/>
<path fill-rule="evenodd" fill="#9F9F9F" d="M21.313,3.639c0.145-0.053,0.389-0.008,0.572-0.021
	C21.739,3.67,21.497,3.625,21.313,3.639z"/>
<path fill-rule="evenodd" fill="#9F9F9F" d="M28.048,3.617c0.168,0.014,0.396-0.031,0.527,0.021
	C28.407,3.625,28.179,3.67,28.048,3.617z"/>
<path fill-rule="evenodd" fill="#9F9F9F" d="M20.327,3.662c0.107-0.053,0.313-0.008,0.459-0.023
	C20.679,3.693,20.474,3.648,20.327,3.662z"/>
<path fill-rule="evenodd" fill="#9F9F9F" d="M29.011,3.639c0.129,0.016,0.32-0.029,0.412,0.023
	C29.292,3.648,29.103,3.693,29.011,3.639z"/>
<path fill-rule="evenodd" fill="#9F9F9F" d="M19.526,3.686c0.084-0.053,0.266-0.008,0.389-0.023
	C19.831,3.715,19.647,3.67,19.526,3.686z"/>
<path fill-rule="evenodd" fill="#9F9F9F" d="M29.788,3.662c0.107,0.016,0.275-0.029,0.344,0.023
	C30.024,3.67,29.858,3.715,29.788,3.662z"/>
<path fill-rule="evenodd" fill="#9F9F9F" d="M18.815,3.709c0.07-0.053,0.236-0.01,0.344-0.023
	C19.091,3.738,18.923,3.693,18.815,3.709z"/>
<path fill-rule="evenodd" fill="#9F9F9F" d="M30.431,3.686c0.092,0.014,0.242-0.029,0.297,0.023
	C30.636,3.693,30.483,3.738,30.431,3.686z"/>
<path fill-rule="evenodd" fill="#9F9F9F" d="M18.175,3.73c0.061-0.053,0.221-0.008,0.32-0.021
	C18.433,3.762,18.274,3.717,18.175,3.73z"/>
<path fill-rule="evenodd" fill="#9F9F9F" d="M30.979,3.709c0.086,0.014,0.229-0.031,0.275,0.021
	C31.171,3.717,31.026,3.762,30.979,3.709z"/>
<path fill-rule="evenodd" fill="#9F9F9F" d="M17.579,3.754c0.055-0.053,0.205-0.008,0.297-0.023
	C17.823,3.783,17.671,3.74,17.579,3.754z"/>
<path fill-rule="evenodd" fill="#9F9F9F" d="M31.483,3.73c0.078,0.016,0.213-0.029,0.252,0.023
	C31.659,3.74,31.522,3.783,31.483,3.73z"/>
<path fill-rule="evenodd" fill="#9F9F9F" d="M17.028,3.777c0.047-0.053,0.191-0.008,0.275-0.023
	C17.257,3.807,17.114,3.762,17.028,3.777z"/>
<path fill-rule="evenodd" fill="#9F9F9F" d="M31.942,3.754c0.068,0.014,0.197-0.029,0.229,0.023
	C32.101,3.762,31.974,3.807,31.942,3.754z"/>
<path fill-rule="evenodd" fill="#9F9F9F" d="M16.524,3.801c0.039-0.053,0.176-0.01,0.252-0.023
	C16.737,3.83,16.603,3.785,16.524,3.801z"/>
<path fill-rule="evenodd" fill="#9F9F9F" d="M16.044,3.822c0.039-0.053,0.174-0.008,0.252-0.021
	C16.257,3.852,16.12,3.809,16.044,3.822z"/>
<path fill-rule="evenodd" fill="#9F9F9F" d="M15.585,3.846c0.033-0.053,0.16-0.008,0.23-0.023
	C15.782,3.875,15.655,3.832,15.585,3.846z"/>
<path fill-rule="evenodd" fill="#676767" d="M14.12,9.848c0.053,0.344,0.008,0.787,0.021,1.168c-0.006,0-0.014,0-0.021,0
	C14.12,10.627,14.12,10.236,14.12,9.848z"/>
<path fill-rule="evenodd" fill="#9F9F9F" d="M14.12,11.016c0.008,0,0.016,0,0.021,0c0,0.404,0,0.811,0,1.215
	C14.089,11.871,14.136,11.414,14.12,11.016z"/>
<path fill-rule="evenodd" fill="#676767" d="M14.142,14.59c0.055,0.344,0.008,0.787,0.023,1.168c-0.008,0-0.016,0-0.023,0
	C14.142,15.369,14.142,14.979,14.142,14.59z"/>
<path fill-rule="evenodd" fill="#9F9F9F" d="M14.142,15.758c0.008,0,0.016,0,0.023,0c0,0.404,0,0.809,0,1.215
	C14.112,16.613,14.157,16.154,14.142,15.758z"/>
<path fill-rule="evenodd" fill="#9F9F9F" d="M34.874,19.148c0.107-0.053,0.313-0.008,0.459-0.023
	C35.226,19.178,35.021,19.133,34.874,19.148z"/>
<path fill-rule="evenodd" fill="#9F9F9F" d="M35.974,19.125c0.115,0.016,0.289-0.029,0.367,0.023
	C36.226,19.133,36.05,19.178,35.974,19.125z"/>
<path fill-rule="evenodd" fill="#9F9F9F" d="M34.302,19.172c0.039-0.053,0.174-0.01,0.252-0.023
	C34.515,19.201,34.378,19.156,34.302,19.172z"/>
<path fill-rule="evenodd" fill="#676767" d="M14.165,19.332c0.055,0.344,0.008,0.785,0.023,1.168c-0.008,0-0.016,0-0.023,0
	C14.165,20.111,14.165,19.721,14.165,19.332z"/>
<path fill-rule="evenodd" fill="#676767" d="M27.429,20.088c-0.014,0.092,0.029,0.244-0.021,0.297
	C27.421,20.293,27.376,20.143,27.429,20.088z"/>
<path fill-rule="evenodd" fill="#9F9F9F" d="M14.165,20.5c0.008,0,0.016,0,0.023,0c0,0.396,0,0.795,0,1.191
	C14.136,21.34,14.181,20.889,14.165,20.5z"/>
<path fill-rule="evenodd" fill="#676767" d="M27.407,22.516c0.051,0.047,0.008,0.191,0.021,0.275
	C27.376,22.744,27.421,22.6,27.407,22.516z"/>
<path fill-rule="evenodd" fill="#9F9F9F" d="M30.247,23.043c0.016-0.131-0.031-0.32,0.023-0.412
	C30.255,22.76,30.3,22.951,30.247,23.043z"/>
<path fill-rule="evenodd" fill="#676767" d="M30.247,23.34c0,0.176,0,0.352,0,0.527c-0.008,0-0.016,0-0.023,0
	C30.239,23.699,30.194,23.471,30.247,23.34z"/>
<path fill-rule="evenodd" fill="#9F9F9F" d="M30.224,23.867c0.008,0,0.016,0,0.023,0c0,0.107,0,0.215,0,0.32
	c-0.008,0-0.016,0-0.023,0C30.224,24.082,30.224,23.975,30.224,23.867z"/>
<path fill-rule="evenodd" fill="#676767" d="M14.188,24.051c0.053,0.352,0.008,0.801,0.023,1.191c-0.008,0-0.016,0-0.023,0
	C14.188,24.846,14.188,24.447,14.188,24.051z"/>
<path fill-rule="evenodd" fill="#676767" d="M30.224,24.188c0.008,0,0.016,0,0.023,0c0,0.176,0,0.352,0,0.527
	C30.194,24.584,30.239,24.355,30.224,24.188z"/>
<path fill-rule="evenodd" fill="#9F9F9F" d="M43.03,24.188c0.053,0.086,0.008,0.268,0.021,0.391
	C42.999,24.492,43.044,24.311,43.03,24.188z"/>
<path fill-rule="evenodd" fill="#9F9F9F" d="M30.247,25.014c0.053,0.084,0.008,0.266,0.023,0.389
	C30.216,25.318,30.263,25.135,30.247,25.014z"/>
<path fill-rule="evenodd" fill="#9F9F9F" d="M60.989,25.059c0.053,0.039,0.008,0.176,0.023,0.252
	C60.96,25.271,61.005,25.137,60.989,25.059z"/>
<path fill-rule="evenodd" fill="#9F9F9F" d="M14.188,25.242c0.008,0,0.016,0,0.023,0c0,0.396,0,0.793,0,1.191
	C14.157,26.082,14.204,25.631,14.188,25.242z"/>
<path fill-rule="evenodd" fill="#9F9F9F" d="M43.052,25.311c-0.014,0.107,0.031,0.273-0.021,0.344
	C43.044,25.547,42.999,25.379,43.052,25.311z"/>
<path fill-rule="evenodd" fill="#9F9F9F" d="M61.013,25.654c0.037,0.336,0.037,0.832,0,1.168
	C61.013,26.434,61.013,26.043,61.013,25.654z"/>
<path fill-rule="evenodd" fill="#9F9F9F" d="M30.271,25.723c0.051,0.039,0.008,0.176,0.021,0.252
	C30.241,25.936,30.284,25.801,30.271,25.723z"/>
<path fill-rule="evenodd" fill="#676767" d="M52.353,26.387c0.053,0.063,0.008,0.221,0.023,0.32
	C52.323,26.646,52.368,26.486,52.353,26.387z"/>
<path fill-rule="evenodd" fill="#676767" d="M52.376,27.121c-0.016,0.1,0.029,0.258-0.023,0.32
	C52.368,27.342,52.323,27.182,52.376,27.121z"/>
<path fill-rule="evenodd" fill="#9F9F9F" d="M60.989,27.418c0.016-0.076-0.029-0.213,0.023-0.252
	C60.997,27.244,61.042,27.379,60.989,27.418z"/>
<path fill-rule="evenodd" fill="#676767" d="M14.212,28.793c0.053,0.352,0.008,0.801,0.021,1.191c-0.008,0-0.014,0-0.021,0
	C14.212,29.586,14.212,29.189,14.212,28.793z"/>
<path fill-rule="evenodd" fill="#9F9F9F" d="M14.212,29.984c0.008,0,0.014,0,0.021,0c0,0.396,0,0.793,0,1.191
	C14.181,30.824,14.226,30.373,14.212,29.984z"/>
<path fill-rule="evenodd" fill="#9F9F9F" d="M33.454,32.023c0.32,0,0.641,0,0.963,0c-0.26,0.053-0.619,0.008-0.918,0.021
	C33.481,32.041,33.454,32.045,33.454,32.023z"/>
<path fill-rule="evenodd" fill="#676767" d="M14.233,33.535c0.055,0.344,0.008,0.785,0.023,1.168c-0.008,0-0.016,0-0.023,0
	C14.233,34.313,14.233,33.924,14.233,33.535z"/>
<path fill-rule="evenodd" fill="#9F9F9F" d="M14.233,34.703c0.008,0,0.016,0,0.023,0c0,0.404,0,0.809,0,1.215
	C14.204,35.559,14.249,35.1,14.233,34.703z"/>
<path fill-rule="evenodd" fill="#676767" d="M14.257,38.277c0.053,0.344,0.008,0.785,0.023,1.168c-0.008,0-0.016,0-0.023,0
	C14.257,39.055,14.257,38.666,14.257,38.277z"/>
<path fill-rule="evenodd" fill="#9F9F9F" d="M14.257,39.445c0.008,0,0.016,0,0.023,0c0,0.396,0,0.793,0,1.191
	C14.226,40.285,14.272,39.834,14.257,39.445z"/>
<path fill-rule="evenodd" fill="#9F9F9F" d="M14.28,40.91c0,0.299,0,0.596,0,0.895C14.241,41.561,14.241,41.156,14.28,40.91z"/>
<path fill-rule="evenodd" fill="#676767" d="M14.28,43.018c0.053,0.344,0.008,0.787,0.023,1.17c-0.008,0-0.016,0-0.023,0
	C14.28,43.797,14.28,43.408,14.28,43.018z"/>
<path fill-rule="evenodd" fill="#9F9F9F" d="M14.28,44.188c0.008,0,0.016,0,0.023,0c0,0.785,0,1.572,0,2.359
	C14.249,45.805,14.296,44.965,14.28,44.188z"/>
<path fill-rule="evenodd" fill="#9F9F9F" d="M53.636,44.76c-0.037-0.078-0.037-0.313,0-0.391
	C53.636,44.5,53.636,44.629,53.636,44.76z"/>
<path fill-rule="evenodd" fill="#676767" d="M14.304,47.738c0.053,0.352,0.006,0.801,0.021,1.191c-0.008,0-0.016,0-0.021,0
	C14.304,48.531,14.304,48.135,14.304,47.738z"/>
<path fill-rule="evenodd" fill="#9F9F9F" d="M14.304,48.93c0.006,0,0.014,0,0.021,0c0,0.785,0,1.572,0,2.359
	C14.272,50.547,14.317,49.707,14.304,48.93z"/>
<path fill-rule="evenodd" fill="#676767" d="M14.325,52.48c0.055,0.342,0.008,0.785,0.023,1.168c-0.008,0-0.016,0-0.023,0
	C14.325,53.258,14.325,52.869,14.325,52.48z"/>
<path fill-rule="evenodd" fill="#9F9F9F" d="M14.325,53.648c0.008,0,0.016,0,0.023,0c0,0.785,0,1.572,0,2.359
	C14.296,55.268,14.341,54.426,14.325,53.648z"/>
<path fill-rule="evenodd" fill="#9F9F9F" d="M31.69,55.16c-0.016,0.373,0.029,0.809-0.023,1.145
	C31.683,55.932,31.636,55.496,31.69,55.16z"/>
<path fill-rule="evenodd" fill="#676767" d="M14.349,57.221c0.053,0.344,0.008,0.787,0.023,1.17c-0.008,0-0.016,0-0.023,0
	C14.349,58,14.349,57.611,14.349,57.221z"/>
<path fill-rule="evenodd" fill="#9F9F9F" d="M14.349,58.391c0.008,0,0.016,0,0.023,0c0,0.785,0,1.572,0,2.359
	C14.317,60.008,14.364,59.168,14.349,58.391z"/>
<path fill-rule="evenodd" fill="#9F9F9F" d="M31.667,58.551c-0.016,0.961,0.031,1.984-0.023,2.908
	C31.659,60.498,31.614,59.475,31.667,58.551z"/>
<path fill-rule="evenodd" fill="#676767" d="M14.372,61.963c0.053,0.344,0.008,0.787,0.021,1.168c-0.006,0-0.014,0-0.021,0
	C14.372,62.742,14.372,62.354,14.372,61.963z"/>
<path fill-rule="evenodd" fill="#9F9F9F" d="M14.372,63.131c0.008,0,0.016,0,0.021,0c0,0.398,0,0.795,0,1.191
	C14.341,63.973,14.388,63.521,14.372,63.131z"/>
<path fill-rule="evenodd" fill="#676767" d="M14.394,66.682c0.055,0.352,0.008,0.803,0.023,1.191c-0.008,0-0.016,0-0.023,0
	C14.394,67.477,14.394,67.08,14.394,66.682z"/>
<path fill-rule="evenodd" fill="#9F9F9F" d="M14.394,67.873c0.008,0,0.016,0,0.023,0c0,0.398,0,0.795,0,1.191
	C14.364,68.713,14.409,68.264,14.394,67.873z"/>
<path fill-rule="evenodd" fill="#676767" d="M14.417,71.424c0.055,0.344,0.008,0.787,0.023,1.17c-0.008,0-0.016,0-0.023,0
	C14.417,72.203,14.417,71.814,14.417,71.424z"/>
<path fill-rule="evenodd" fill="#9F9F9F" d="M14.417,72.594c0.008,0,0.016,0,0.023,0c0,0.129,0,0.258,0,0.389
	C14.388,72.898,14.433,72.715,14.417,72.594z"/>
<path fill-rule="evenodd" fill="#9F9F9F" d="M55.126,10.879c0.291,0.273,0.574,0.555,0.846,0.848
	C55.681,11.453,55.397,11.17,55.126,10.879z"/>
<path fill-rule="evenodd" fill="#E5E5E5" d="M23.649,3.594c0.916,0,1.832,0,2.748,0c0.283,0.053,0.666,0.008,0.986,0.023
	c0.221,0,0.443,0,0.664,0c0.131,0.053,0.359,0.008,0.527,0.021c0.145,0,0.289,0,0.436,0c0.092,0.055,0.281,0.01,0.412,0.023
	c0.121,0,0.244,0,0.365,0c0.07,0.053,0.236,0.008,0.344,0.023c0.1,0,0.199,0,0.299,0c0.053,0.053,0.205,0.008,0.297,0.023
	c0.084,0,0.168,0,0.252,0c0.047,0.053,0.191,0.008,0.275,0.021c0.076,0,0.152,0,0.229,0c0.039,0.053,0.176,0.01,0.252,0.023
	c0.068,0,0.139,0,0.207,0c0.031,0.053,0.158,0.008,0.229,0.023c9.537,0.482,17.709,2.328,22.955,7.102
	c0.271,0.291,0.555,0.574,0.846,0.848c2.229,2.459,3.701,5.678,4.537,9.529c-3.852-3.588-8.664-6.332-15.418-6.941
	c-2.076-0.967-4.66-1.539-7.537-1.74c-2.887-0.203-6.23-0.428-8.086,0.824c-1.928,1.299-2.291,3.729-2.291,6.941
	c0,2.955,0.109,6.078,1.238,7.973c0.504,0.871,1.299,1.566,2.107,2.176c0.096,0.072,0.186,0.215,0.32,0.184
	c0.727,0.592,1.611,1.029,2.611,1.352c0,0.021,0.027,0.018,0.045,0.021c0.484,0.148,1.146,0.135,1.766,0.092
	c0.193-0.014,0.42-0.072,0.572-0.045c0.123,0.021,0.391,0.275,0.572,0.389c2.629,1.658,5.793,2.861,9.896,3.047
	c0.639,0.029,1.369,0,1.992-0.045c-2.75,2.064-6.072,3.676-9.85,4.764c-2.811,0.811-6.057,1.217-9.301,1.672
	c-0.744,0.105-1.572,0.219-2.428,0.322c-0.271,0.033-0.609,0.141-0.779,0.113c-0.193-0.031-0.592-0.553-0.803-0.777
	c-1.766-1.902-3.395-3.932-4.719-6.232c-4.582-7.959-6.008-19.01-6.322-31.199c0-0.078,0-0.154,0-0.23
	c0.508-0.01,0.969-0.07,1.488-0.068c0.07-0.014,0.197,0.029,0.23-0.023c0.076,0,0.152,0,0.229,0
	c0.076-0.014,0.213,0.029,0.252-0.021c0.076,0,0.152,0,0.229,0c0.078-0.016,0.213,0.029,0.252-0.023c0.084,0,0.168,0,0.252,0
	c0.086-0.016,0.229,0.029,0.275-0.023c0.092,0,0.184,0,0.275,0c0.092-0.014,0.244,0.029,0.297-0.023c0.1,0,0.199,0,0.299,0
	c0.1-0.014,0.258,0.031,0.32-0.021c0.107,0,0.213,0,0.32,0c0.107-0.016,0.275,0.029,0.344-0.023c0.123,0,0.244,0,0.367,0
	c0.121-0.016,0.305,0.029,0.389-0.023c0.139,0,0.275,0,0.412,0c0.146-0.014,0.352,0.031,0.459-0.023c0.176,0,0.352,0,0.527,0
	c0.184-0.014,0.426,0.031,0.572-0.021c0.244,0,0.488,0,0.732,0C22.954,3.602,23.351,3.646,23.649,3.594z"/>
<path fill-rule="evenodd" fill="#FFFFFF" d="M14.097,4.145c0.314,12.189,1.74,23.24,6.322,31.199
	c1.324,2.301,2.953,4.33,4.719,6.232c0.211,0.225,0.609,0.746,0.803,0.777c0.17,0.027,0.508-0.08,0.779-0.113
	c0.855-0.104,1.684-0.217,2.428-0.322c3.244-0.455,6.49-0.861,9.301-1.672c3.777-1.088,7.1-2.699,9.85-4.764
	c1.164-0.922,2.275-1.918,2.934-3.391c0.648-1.453,0.893-3.357,0.893-5.406c0-4.1-1.1-7.449-3-9.621
	c-0.076-0.094-0.16-0.178-0.252-0.252c-2.852-2.598-7.135-3.785-12.439-4.01c-2.854-0.121-5.412-0.201-7.033,1.055
	c-1.57,1.215-1.984,3.383-1.971,6.23c-0.053,0.055-0.008,0.205-0.021,0.297c0,0.711,0,1.42,0,2.131
	c0.014,0.084-0.031,0.229,0.021,0.275c0.025,2.145,0.234,4.102,0.986,5.521c-1.129-1.895-1.238-5.018-1.238-7.973
	c0-3.213,0.363-5.643,2.291-6.941c1.855-1.252,5.199-1.027,8.086-0.824c2.877,0.201,5.461,0.773,7.537,1.74
	c2.232,1.049,4.115,2.279,5.314,4.354c1.174,2.025,1.828,4.59,1.947,7.719c0.016,0.1-0.029,0.26,0.023,0.32c0,0.139,0,0.275,0,0.414
	c-0.053,0.061-0.008,0.221-0.023,0.32c-0.035,1.697-0.291,3.098-0.709,4.33c-0.414,1.217-1.16,2.162-2.016,3
	c-1.688,1.654-3.834,2.885-6.094,3.939s-4.795,1.932-7.561,2.498c-2.773,0.566-5.707,0.977-8.658,1.375
	c3.316,0.598,6.896,0.703,9.781,1.672c2.861,0.961,5.314,2.359,7.238,4.191c0.105,0.125,0.221,0.238,0.344,0.344
	c0.109,0.145,0.258,0.246,0.367,0.391c0.098,0.115,0.203,0.223,0.32,0.32c2.846,3.125,5.506,6.436,8.406,9.506
	c0.09,0.109,0.189,0.209,0.299,0.299c0.139,0.174,0.318,0.307,0.459,0.48c0.15,0.17,0.311,0.33,0.48,0.48
	c0.203,0.225,0.418,0.438,0.641,0.643c0.066,0.086,0.145,0.162,0.23,0.229c0.082,0.047,0.123,0.137,0.205,0.184
	c4.973,4.49,10.416,8.68,15.807,12.805c0.322,0.248,0.637,0.568,1.008,0.779c0.035,0.02,0.004,0.012,0-0.023
	c0.055,0.008,0.051,0.072,0.092,0.092c0,0.008,0,0.016,0,0.023c-4.955-0.211-10.018-0.545-15.096-0.688
	c-1.738-0.049-3.402-0.061-4.65-0.596c-1.273-0.543-1.865-1.543-2.635-2.635c-2.215-3.141-4.295-6.178-6.482-9.277
	c0.018,0.004,0.021,0.023,0.045,0.023c0.188,0.064,0.365-0.076,0.527-0.137c2.697-1.023,5.145-2.426,7.307-4.01
	c-0.385-0.547-0.879-1.021-1.328-1.535c-1.332-1.521-2.664-3.123-4.031-4.627c-0.463-0.576-0.979-1.1-1.467-1.65
	c-0.082-0.1-0.174-0.191-0.275-0.273c-0.139-0.174-0.318-0.309-0.457-0.482c-0.137-0.154-0.281-0.299-0.436-0.434
	c-1.344-1.332-3.004-2.303-4.811-3.139c-1.797-0.832-3.813-1.535-6.186-1.742c-2.322-0.357-4.686-0.674-7.033-1.008
	c-0.568,4.387-1.127,8.908-1.672,13.402c-0.037,0.314-0.125,0.67-0.092,0.893c0.043,0.287,0.443,0.74,0.643,1.008
	c1.619,2.191,3.861,3.748,6.779,4.605c-0.023,1.914,0.023,3.855,0.023,5.795c0,2.02,0.281,3.996-1.031,4.742
	c-0.592,0.336-1.365,0.521-2.039,0.732c-2.113,0.662-4.428,1.072-6.643,1.627c-0.031,0-0.061,0-0.092,0
	c1.156-10.605,2.381-21.271,3.619-31.865c0.041-0.346,0.148-0.771,0.115-1.008c-0.027-0.191-0.443-0.561-0.664-0.803
	c-1.629-1.771-3.195-3.646-4.467-5.748c-4.043-6.682-5.736-15.693-6.232-25.863c-0.021-0.465-0.021-0.939-0.045-1.422
	c-0.021-0.457,0.004-0.939-0.047-1.396c-0.002-0.021-0.008-0.203-0.021,0c-0.008,0-0.016,0-0.023,0
	C14.097,6.373,14.097,5.258,14.097,4.145z"/>
<path fill-rule="evenodd" fill="#E5E5E5" d="M60.622,57.84c4.076,5.699,8.176,11.373,12.279,17.043c0.004,0.035,0.035,0.043,0,0.023
	c-0.371-0.211-0.686-0.531-1.008-0.779c-5.391-4.125-10.834-8.314-15.807-12.805C57.769,60.33,59.255,59.145,60.622,57.84z"/>
<path fill-rule="evenodd" fill="#676767" d="M48.872,16.813c0.092,0.074,0.176,0.158,0.252,0.252
	C49.03,16.988,48.946,16.906,48.872,16.813z"/>
<path fill-rule="evenodd" fill="#676767" d="M44.335,48.447c0.125,0.105,0.238,0.221,0.344,0.344
	C44.556,48.686,44.44,48.572,44.335,48.447z"/>
<path fill-rule="evenodd" fill="#676767" d="M45.046,49.182c0.115,0.096,0.223,0.203,0.32,0.32
	C45.249,49.404,45.144,49.297,45.046,49.182z"/>
<path fill-rule="evenodd" fill="#676767" d="M53.772,59.008c0.109,0.09,0.209,0.189,0.299,0.299
	C53.962,59.217,53.862,59.117,53.772,59.008z"/>
<path fill-rule="evenodd" fill="#676767" d="M54.53,59.787c0.17,0.15,0.33,0.311,0.48,0.48
	C54.841,60.117,54.681,59.957,54.53,59.787z"/>
<path fill-rule="evenodd" fill="#676767" d="M55.651,60.91c0.086,0.066,0.162,0.143,0.23,0.229
	C55.796,61.072,55.718,60.996,55.651,60.91z"/>
<path fill-rule="evenodd" fill="#676767" d="M44.907,49.594c0.102,0.082,0.193,0.174,0.275,0.273
	C45.081,49.785,44.989,49.695,44.907,49.594z"/>
<path fill-rule="evenodd" fill="#676767" d="M44.015,48.678c0.154,0.135,0.299,0.279,0.436,0.434
	C44.296,48.977,44.149,48.832,44.015,48.678z"/>
<path fill-rule="evenodd" fill="#9F9F9F" d="M41.884,20.867c0.094,0.074,0.178,0.158,0.252,0.252
	C42.042,21.045,41.958,20.961,41.884,20.867z"/>
<path fill-rule="evenodd" fill="#9F9F9F" d="M56.294,51.633c-0.008-0.025,0.139,0.176,0.184,0.252
	C56.499,51.969,56.329,51.711,56.294,51.633z"/>
<path fill-rule="evenodd" fill="#676767" d="M56.042,51.266c-0.121-0.125-0.213-0.277-0.299-0.436
	C55.849,50.971,55.96,51.102,56.042,51.266z"/>
<path fill-rule="evenodd" fill="#9F9F9F" d="M32.583,51.381c0.082-0.102,0.174-0.193,0.275-0.275
	C32.776,51.207,32.685,51.299,32.583,51.381z"/>
<path fill-rule="evenodd" fill="#9F9F9F" d="M37.716,53.418c0.074,0.041,0.107,0.121,0.182,0.16
	c0.023,0.061,0.092,0.078,0.115,0.139C37.903,53.627,37.804,53.527,37.716,53.418z"/>
<path fill-rule="evenodd" fill="#676767" d="M36.868,52.57c0.217,0.188,0.43,0.379,0.617,0.596
	C37.28,52.969,37.065,52.777,36.868,52.57z"/>
<path fill-rule="evenodd" fill="#E5E5E5" d="M44.13,61.803c-1.939-2.795-3.865-5.604-6.117-8.086
	c-0.023-0.061-0.092-0.078-0.115-0.139c3.443,0.648,6.746-0.777,8.752-2.061c1.367,1.504,2.699,3.105,4.031,4.627
	c0.449,0.514,0.943,0.988,1.328,1.535c-2.162,1.584-4.609,2.986-7.307,4.01c-0.162,0.061-0.34,0.201-0.527,0.137
	C44.151,61.826,44.147,61.807,44.13,61.803z"/>
<path fill-rule="evenodd" fill="#CCCCCC" d="M60.509,21.256c0.246,1.182,0.436,2.42,0.48,3.803c0.016,0.078-0.029,0.213,0.023,0.252
	c0,0.115,0,0.229,0,0.344c0,0.389,0,0.779,0,1.168c0,0.115,0,0.229,0,0.344c-0.053,0.039-0.008,0.176-0.023,0.252
	c-0.316,5.84-2.93,9.213-5.566,12.645c-0.885,1.152-1.713,2.457-1.787,4.307c-0.037,0.078-0.037,0.313,0,0.391
	c0.037,1.521,0.658,2.725,1.215,3.848c0.566,1.148,1.164,2.234,1.787,3.299c0.299,0.514,0.531,0.988,0.848,1.443
	c1.033,1.492,2.094,2.973,3.137,4.49c-1.367,1.305-2.854,2.49-4.535,3.482c-0.082-0.047-0.123-0.137-0.205-0.184
	c-0.068-0.086-0.145-0.162-0.23-0.229c-0.223-0.205-0.438-0.418-0.641-0.643c-0.15-0.17-0.311-0.33-0.48-0.48
	c-0.141-0.174-0.32-0.307-0.459-0.48c-0.09-0.109-0.189-0.209-0.299-0.299c-2.9-3.07-5.561-6.381-8.406-9.506
	c-0.098-0.117-0.205-0.225-0.32-0.32c-0.109-0.145-0.258-0.246-0.367-0.391c-0.105-0.123-0.219-0.238-0.344-0.344
	c-1.924-1.832-4.377-3.23-7.238-4.191c-2.885-0.969-6.465-1.074-9.781-1.672c2.951-0.398,5.885-0.809,8.658-1.375
	c2.766-0.566,5.301-1.443,7.561-2.498s4.406-2.285,6.094-3.939c0.855-0.838,1.602-1.783,2.016-3c0.418-1.232,0.674-2.633,0.709-4.33
	c0.053-0.063,0.008-0.221,0.023-0.32c0-0.139,0-0.275,0-0.414c-0.016-0.1,0.029-0.258-0.023-0.32
	c-0.119-3.129-0.773-5.693-1.947-7.719c-1.199-2.074-3.082-3.305-5.314-4.354C51.845,14.924,56.657,17.668,60.509,21.256z
	 M56.478,51.885c-0.045-0.076-0.191-0.277-0.184-0.252C56.329,51.711,56.499,51.969,56.478,51.885z M55.743,50.83
	c0.086,0.158,0.178,0.311,0.299,0.436C55.96,51.102,55.849,50.971,55.743,50.83z"/>
<path fill-rule="evenodd" fill="#CCCCCC" d="M33.019,43.797c2.373,0.207,4.389,0.91,6.186,1.742
	c1.807,0.836,3.467,1.807,4.811,3.139c0.135,0.154,0.281,0.299,0.436,0.434c0.139,0.174,0.318,0.309,0.457,0.482
	c0.082,0.102,0.174,0.191,0.275,0.273c0.488,0.551,1.004,1.074,1.467,1.65c-2.006,1.283-5.309,2.709-8.752,2.061
	c-0.074-0.039-0.107-0.119-0.182-0.16c-0.064-0.098-0.168-0.154-0.23-0.252c-0.188-0.217-0.4-0.408-0.617-0.596
	c-0.924-0.734-1.684-1.629-3.207-1.764c-0.023,0-0.047,0-0.07,0C32.347,49.328,32.181,45.977,33.019,43.797z"/>
<path fill-rule="evenodd" fill="#E5E5E5" d="M33.019,43.797c-0.838,2.18-0.672,5.531,0.572,7.01c0.023,0,0.047,0,0.07,0
	c-0.326,0.043-0.584,0.15-0.803,0.299c-0.102,0.082-0.193,0.174-0.275,0.275c-0.656,0.9-0.84,2.275-0.893,3.779
	c-0.055,0.336-0.008,0.771-0.023,1.145c0,0.748,0,1.498,0,2.246c-0.053,0.924-0.008,1.947-0.023,2.908c0,0.412,0,0.826,0,1.238
	c-2.918-0.857-5.16-2.414-6.779-4.605c-0.199-0.268-0.6-0.721-0.643-1.008c-0.033-0.223,0.055-0.578,0.092-0.893
	c0.545-4.494,1.104-9.016,1.672-13.402C28.333,43.123,30.696,43.439,33.019,43.797z"/>
<path fill-rule="evenodd" fill="#CCCCCC" d="M14.12,7.488c0.014-0.203,0.02-0.021,0.021,0c0.051,0.457,0.025,0.939,0.047,1.396
	c0.023,0.482,0.023,0.957,0.045,1.422c0.496,10.17,2.189,19.182,6.232,25.863c1.271,2.102,2.838,3.977,4.467,5.748
	c0.221,0.242,0.637,0.611,0.664,0.803c0.033,0.236-0.074,0.662-0.115,1.008c-1.238,10.594-2.463,21.26-3.619,31.865
	c-0.023,0-0.045,0-0.068,0c-2.434-0.889-4.904-1.74-7.354-2.611c0-0.131,0-0.26,0-0.389c-0.016-0.383,0.031-0.826-0.023-1.17
	c0-0.785,0-1.572,0-2.359c0-0.396,0-0.793,0-1.191c-0.016-0.389,0.031-0.84-0.023-1.191c0-0.785,0-1.572,0-2.359
	c0-0.396,0-0.793,0-1.191c-0.014-0.381,0.031-0.824-0.021-1.168c0-0.404,0-0.809,0-1.213c0-0.787,0-1.574,0-2.359
	c-0.016-0.383,0.029-0.826-0.023-1.17c0-0.404,0-0.809,0-1.213c0-0.787,0-1.574,0-2.359c-0.016-0.383,0.031-0.826-0.023-1.168
	c0-0.398,0-0.795,0-1.191c0-0.787,0-1.574,0-2.359c-0.016-0.391,0.031-0.84-0.021-1.191c0-0.398,0-0.795,0-1.191
	c0-0.787,0-1.574,0-2.359c-0.016-0.383,0.029-0.826-0.023-1.17c0-0.404,0-0.809,0-1.213c0-0.299,0-0.596,0-0.895
	c0-0.09,0-0.182,0-0.273c0-0.398,0-0.795,0-1.191c-0.016-0.383,0.029-0.824-0.023-1.168c0-0.787,0-1.574,0-2.359
	c0-0.406,0-0.811,0-1.215c-0.016-0.383,0.031-0.824-0.023-1.168c0-0.787,0-1.574,0-2.359c0-0.398,0-0.795,0-1.191
	c-0.014-0.391,0.031-0.84-0.021-1.191c0-0.787,0-1.574,0-2.359c0-0.398,0-0.795,0-1.191c-0.016-0.391,0.029-0.84-0.023-1.191
	c0-0.787,0-1.572,0-2.359c0-0.396,0-0.795,0-1.191c-0.016-0.383,0.031-0.824-0.023-1.168c0-0.787,0-1.574,0-2.359
	c0-0.406,0-0.811,0-1.215c-0.016-0.381,0.031-0.824-0.023-1.168c0-0.787,0-1.574,0-2.359c0-0.404,0-0.811,0-1.215
	c-0.014-0.381,0.031-0.824-0.021-1.168C14.12,9.061,14.12,8.275,14.12,7.488z"/>
<path fill-rule="evenodd" fill="#CCCCCC" d="M27.429,20.088c-0.014-2.848,0.4-5.016,1.971-6.23c1.621-1.256,4.18-1.176,7.033-1.055
	c5.305,0.225,9.588,1.412,12.439,4.01c0.074,0.094,0.158,0.176,0.252,0.252c1.9,2.172,3,5.521,3,9.621
	c0,2.049-0.244,3.953-0.893,5.406c-0.658,1.473-1.77,2.469-2.934,3.391c-0.623,0.045-1.354,0.074-1.992,0.045
	c-4.104-0.186-7.268-1.389-9.896-3.047c-0.182-0.113-0.449-0.367-0.572-0.389c-0.152-0.027-0.379,0.031-0.572,0.045
	c-0.619,0.043-1.281,0.057-1.766-0.092c0.299-0.014,0.658,0.031,0.918-0.021c4.555-0.438,8.377-1.611,8.613-6.369
	c0.053-0.07,0.008-0.236,0.021-0.344c0-0.244,0-0.488,0-0.732c-0.014-0.123,0.031-0.305-0.021-0.391
	c0.018-1.338-0.24-2.4-0.895-3.068c-0.074-0.094-0.158-0.178-0.252-0.252c-1.285-1.137-3.264-1.578-5.543-1.719
	c-0.078-0.053-0.252-0.008-0.367-0.023c-0.213,0-0.428,0-0.641,0c-0.146,0.016-0.352-0.029-0.459,0.023c-0.107,0-0.213,0-0.32,0
	c-0.078,0.014-0.213-0.029-0.252,0.023c-2.461,0.035-3.881,1.113-4.031,3.459c-0.055,0.092-0.008,0.281-0.023,0.412
	c0,0.1,0,0.199,0,0.297c-0.053,0.131-0.008,0.359-0.023,0.527c0,0.107,0,0.215,0,0.32c0.016,0.168-0.029,0.396,0.023,0.527
	c0,0.1,0,0.199,0,0.299c0.016,0.121-0.031,0.305,0.023,0.389c0,0.107,0,0.213,0,0.32c0.014,0.078-0.029,0.213,0.021,0.252
	c0.08,1.67,0.264,3.234,0.551,4.697c-0.135,0.031-0.225-0.111-0.32-0.184c-0.809-0.609-1.604-1.305-2.107-2.176
	c-0.752-1.42-0.961-3.377-0.986-5.521c-0.014-0.084,0.029-0.229-0.021-0.275c0-0.711,0-1.42,0-2.131
	C27.458,20.332,27.415,20.18,27.429,20.088z"/>
</svg>
