<?xml version="1.0" encoding="UTF-8"?>
<svg width="50px" height="50px" viewBox="0 0 50 50" version="1.1" xmlns="http://www.w3.org/2000/svg" xmlns:xlink="http://www.w3.org/1999/xlink">
    <!-- Generator: Sketch 49 (51002) - http://www.bohemiancoding.com/sketch -->
    <title>Untitled</title>
    <desc>Created with Sketch.</desc>
    <defs></defs>
    <g id="Page-1" stroke="none" stroke-width="1" fill="none" fill-rule="evenodd">
        <g id="Category.Dictionary" transform="translate(7.000000, 5.000000)" fill="#AAAAAA" fill-rule="nonzero">
            <path d="M35.5,28.125 L35.5,1.875 C35.5,0.8359375 34.6640625,0 33.625,0 L8,0 C3.859375,0 0.5,3.359375 0.5,7.5 L0.5,32.5 C0.5,36.640625 3.859375,40 8,40 L33.625,40 C34.6640625,40 35.5,39.1640625 35.5,38.125 L35.5,36.875 C35.5,36.2890625 35.2265625,35.7578125 34.8046875,35.4140625 C34.4765625,34.2109375 34.4765625,30.78125 34.8046875,29.578125 C35.2265625,29.2421875 35.5,28.7109375 35.5,28.125 Z M10.5,10.46875 C10.5,10.2109375 10.7109375,10 10.96875,10 L27.53125,10 C27.7890625,10 28,10.2109375 28,10.46875 L28,12.03125 C28,12.2890625 27.7890625,12.5 27.53125,12.5 L10.96875,12.5 C10.7109375,12.5 10.5,12.2890625 10.5,12.03125 L10.5,10.46875 Z M10.5,15.46875 C10.5,15.2109375 10.7109375,15 10.96875,15 L27.53125,15 C27.7890625,15 28,15.2109375 28,15.46875 L28,17.03125 C28,17.2890625 27.7890625,17.5 27.53125,17.5 L10.96875,17.5 C10.7109375,17.5 10.5,17.2890625 10.5,17.03125 L10.5,15.46875 Z M30.296875,35 L8,35 C6.6171875,35 5.5,33.8828125 5.5,32.5 C5.5,31.125 6.625,30 8,30 L30.296875,30 C30.1484375,31.3359375 30.1484375,33.6640625 30.296875,35 Z" id="Shape"></path>
        </g>
    </g>
</svg>