<?xml version="1.0" encoding="utf-8"?>
<!-- Generator: Adobe Illustrator 15.0.0, SVG Export Plug-In . SVG Version: 6.00 Build 0)  -->
<!DOCTYPE svg PUBLIC "-//W3C//DTD SVG 1.1//EN" "http://www.w3.org/Graphics/SVG/1.1/DTD/svg11.dtd">
<svg version="1.1" xmlns="http://www.w3.org/2000/svg" xmlns:xlink="http://www.w3.org/1999/xlink" x="0px" y="0px" width="15.36px"
	 height="15.36px" viewBox="0 0 15.36 15.36" enable-background="new 0 0 15.36 15.36" xml:space="preserve">
<g id="Shape_1_1_" enable-background="new    ">
	<g id="Shape_1">
		<g>
			<circle fill-rule="evenodd" clip-rule="evenodd" fill="#4B9DBF" cx="7.68" cy="7.68" r="7.2"/>
		</g>
	</g>
</g>
<g id="_x3F_">
	<g>
		<path fill="#FFFFFF" d="M6.561,9.104V8.67c0-0.375,0.08-0.701,0.24-0.979c0.16-0.278,0.453-0.573,0.879-0.885
			c0.41-0.293,0.681-0.531,0.812-0.715c0.13-0.184,0.196-0.389,0.196-0.615c0-0.254-0.095-0.447-0.281-0.58
			C8.219,4.764,7.958,4.697,7.622,4.697c-0.586,0-1.254,0.191-2.004,0.574L4.979,3.988C5.85,3.5,6.774,3.256,7.75,3.256
			c0.804,0,1.445,0.193,1.92,0.58s0.711,0.902,0.711,1.547c0,0.43-0.098,0.801-0.293,1.113S9.522,7.16,8.975,7.551
			C8.599,7.829,8.363,8.04,8.263,8.184S8.114,8.518,8.114,8.752v0.352H6.561z M6.374,11.108c0-0.328,0.088-0.576,0.264-0.744
			s0.432-0.252,0.768-0.252c0.324,0,0.575,0.086,0.753,0.258s0.267,0.418,0.267,0.738c0,0.309-0.09,0.552-0.27,0.729
			s-0.43,0.267-0.75,0.267c-0.328,0-0.582-0.087-0.762-0.261S6.374,11.424,6.374,11.108z"/>
	</g>
</g>
</svg>
