<?xml version="1.0" encoding="iso-8859-1"?>
<!-- Generator: Adobe Illustrator 19.0.0, SVG Export Plug-In . SVG Version: 6.00 Build 0)  -->
<svg xmlns="http://www.w3.org/2000/svg" xmlns:xlink="http://www.w3.org/1999/xlink" version="1.1" id="Layer_1" x="0px" y="0px" viewBox="0 0 512 512" style="enable-background:new 0 0 512 512;" xml:space="preserve" width="512px" height="512px">
<g>
	<g>
		<path d="M400.41,196.923h-19.692V78.769H275.692V59.077C275.692,26.502,249.19,0,216.615,0c-32.575,0-59.077,26.502-59.077,59.077    v19.692H52.513v157.538h59.077c10.858,0,19.692,8.834,19.692,19.692s-8.834,19.692-19.692,19.692H52.513v157.538h105.026v19.692    c0,32.575,26.502,59.077,59.077,59.077c32.575,0,59.077-26.502,59.077-59.077v-19.692h105.026V315.077h19.692    c32.575,0,59.077-26.502,59.077-59.077S432.985,196.923,400.41,196.923z M400.41,275.692h-59.077v118.154H236.308v59.077    c0,10.858-8.834,19.692-19.692,19.692s-19.692-8.834-19.692-19.692v-59.077H91.897v-78.769h19.692    c32.575,0,59.077-26.502,59.077-59.077s-26.502-59.077-59.077-59.077H91.897v-78.769h105.026V59.077    c0-10.858,8.834-19.692,19.692-19.692s19.692,8.834,19.692,19.692v59.077h105.026v118.154h59.077    c10.858,0,19.692,8.834,19.692,19.692S411.269,275.692,400.41,275.692z" fill="#FFFFFF"/>
	</g>
</g>
<g>
</g>
<g>
</g>
<g>
</g>
<g>
</g>
<g>
</g>
<g>
</g>
<g>
</g>
<g>
</g>
<g>
</g>
<g>
</g>
<g>
</g>
<g>
</g>
<g>
</g>
<g>
</g>
<g>
</g>
</svg>
