<svg id="Capa_1" data-name="Capa 1" xmlns="http://www.w3.org/2000/svg" viewBox="0 0 511.72 512"><defs><style>.cls-1{fill:#4ac8ef;}</style></defs><title>plus-symbol-blue</title><path class="cls-1" d="M18.22,274.22A18.2,18.2,0,0,1,.13,255.87a18,18,0,0,1,18.09-18.09H237.63V18.35A18.45,18.45,0,0,1,256,0a18.2,18.2,0,0,1,18.09,18.35V237.78H493.5a18.2,18.2,0,0,1,18.35,18.09,18.42,18.42,0,0,1-18.35,18.35H274.09V493.65A18.2,18.2,0,0,1,256,512a18.42,18.42,0,0,1-18.35-18.35V274.22Z" transform="translate(-0.13)"/></svg>